<svg id="Capa_1" data-name="Capa 1" xmlns="http://www.w3.org/2000/svg" viewBox="0 0 600 600"><defs><style>.cls-1{fill:#77c5b6;}</style></defs><path class="cls-1" d="M216.59,310.1h47.59c-8.27-29.45-16.44-58.57-24.61-87.7Z"/><path class="cls-1" d="M301.87,40.62C160.26,40.62,45.46,155.42,45.46,297s114.8,256.41,256.41,256.41S558.28,438.64,558.28,297,443.48,40.62,301.87,40.62Zm34.88,362.31c-14.65,0-29.3-.13-43.95.1-3.51.06-4.82-1.19-5.74-4.34-4.68-16-9.62-31.94-14.28-47.95-.8-2.74-1.92-3.71-4.85-3.69q-27.62.22-55.24,0c-3,0-4,1.06-4.72,3.82C203.66,367,199,383,194.73,399.12c-.8,3-2.09,3.91-5.14,3.88-14.22-.15-28.46-.06-42.69-.08-1.22,0-2.45-.13-4.2-.23l66.54-217.6h55.1c9.38,0,9.4,0,12.19,9Q308.28,296.42,340,398.78c.37,1.18.65,2.38,1.13,4.15Zm79.08-.16H367.51V245.36h48.32Zm-24.51-177.5c-15-.05-25.42-10.13-25.31-24.51.1-14.75,10.32-24.45,25.78-24.45s26,10.23,25.9,24.94C417.59,215.41,406.72,225.32,391.32,225.27Z"/></svg>