<svg id="Capa_1" data-name="Capa 1" xmlns="http://www.w3.org/2000/svg" viewBox="0 0 674.28 674.28"><defs><style>.cls-1{isolation:isolate;}.cls-2{fill:#fff;}.cls-3{fill:none;stroke:#fff;stroke-miterlimit:10;stroke-width:4px;}</style></defs><g id="Grupo_198" data-name="Grupo 198"><g id="Mira_mi_CV" data-name="Mira mi CV"><g class="cls-1"><path class="cls-2" d="M241.58,312.68v34.39h-4.52V321.43l-11.43,25.64h-3.18L211,321.38v25.69h-4.52V312.68h4.87L224,341.11l12.72-28.43Z"/><path class="cls-2" d="M249.38,314.52a2.94,2.94,0,0,1-.9-2.18,3,3,0,0,1,.9-2.19,2.93,2.93,0,0,1,2.18-.89,2.83,2.83,0,0,1,2.12.89,3,3,0,0,1,.87,2.19,3,3,0,0,1-.87,2.18,2.84,2.84,0,0,1-2.12.9A2.94,2.94,0,0,1,249.38,314.52Zm4.37,5.32v27.23h-4.52V319.84Z"/><path class="cls-2" d="M269.38,320.63a10.52,10.52,0,0,1,5.39-1.29V324h-1.19q-7.6,0-7.61,8.25v14.81h-4.52V319.84H266v4.42A8.78,8.78,0,0,1,269.38,320.63Z"/><path class="cls-2" d="M280,326a12.19,12.19,0,0,1,4.64-4.9,12.75,12.75,0,0,1,6.59-1.74,12.17,12.17,0,0,1,6.21,1.54,10.29,10.29,0,0,1,3.92,3.88v-5h4.57v27.23h-4.57V342a10.61,10.61,0,0,1-4,3.95,11.88,11.88,0,0,1-6.18,1.57A12.31,12.31,0,0,1,280,340.71a15.6,15.6,0,0,1-1.69-7.36A15.21,15.21,0,0,1,280,326Zm20.12,2a8.83,8.83,0,0,0-3.35-3.5,9.08,9.08,0,0,0-4.65-1.22,9.19,9.19,0,0,0-4.62,1.19,8.74,8.74,0,0,0-3.33,3.48,11,11,0,0,0-1.24,5.36,11.33,11.33,0,0,0,1.24,5.45,8.87,8.87,0,0,0,3.33,3.53,9,9,0,0,0,4.62,1.21,9.17,9.17,0,0,0,4.65-1.21,8.85,8.85,0,0,0,3.35-3.53,11.21,11.21,0,0,0,1.24-5.4A11,11,0,0,0,300.11,328Z"/><path class="cls-2" d="M365.25,320.66a9.47,9.47,0,0,1,3.93,3.95,13.2,13.2,0,0,1,1.44,6.41v16.05h-4.47v-15.4a8.83,8.83,0,0,0-2-6.24,7.1,7.1,0,0,0-5.45-2.16,7.25,7.25,0,0,0-5.61,2.26c-1.39,1.51-2.09,3.68-2.09,6.53v15h-4.47v-15.4a8.83,8.83,0,0,0-2-6.24,7.08,7.08,0,0,0-5.44-2.16,7.26,7.26,0,0,0-5.62,2.26c-1.39,1.51-2.08,3.68-2.08,6.53v15h-4.53V319.84h4.53v3.93a8.83,8.83,0,0,1,3.6-3.28,10.78,10.78,0,0,1,5-1.15,11.82,11.82,0,0,1,6.06,1.54A9.42,9.42,0,0,1,350,325.4a8.91,8.91,0,0,1,3.78-4.47,11.08,11.08,0,0,1,5.86-1.59A11.85,11.85,0,0,1,365.25,320.66Z"/><path class="cls-2" d="M378.17,314.52a3,3,0,0,1-.89-2.18,3,3,0,0,1,.89-2.19,3,3,0,0,1,2.19-.89,2.81,2.81,0,0,1,2.11.89,3,3,0,0,1,.87,2.19,3,3,0,0,1-.87,2.18,2.82,2.82,0,0,1-2.11.9A3,3,0,0,1,378.17,314.52Zm4.38,5.32v27.23H378V319.84Z"/><path class="cls-2" d="M404.11,320.61a16.6,16.6,0,0,1,6.24-6.34,17.2,17.2,0,0,1,8.77-2.28,17.78,17.78,0,0,1,9.88,2.73,15.71,15.71,0,0,1,6.17,7.75h-5.42a10.9,10.9,0,0,0-4.15-4.82,12.07,12.07,0,0,0-6.48-1.69,12.69,12.69,0,0,0-6.51,1.69,11.86,11.86,0,0,0-4.53,4.8,17,17,0,0,0,0,14.51,11.77,11.77,0,0,0,4.53,4.79,12.59,12.59,0,0,0,6.51,1.69,12.15,12.15,0,0,0,6.48-1.66,10.69,10.69,0,0,0,4.15-4.8h5.42a15.53,15.53,0,0,1-6.17,7.68,17.85,17.85,0,0,1-9.88,2.71,17.28,17.28,0,0,1-8.77-2.26,16.46,16.46,0,0,1-6.24-6.29,19.25,19.25,0,0,1,0-18.21Z"/><path class="cls-2" d="M470.5,312.44l-13.07,34.63h-5.22l-13.07-34.63H444l10.88,29.86,10.88-29.86Z"/></g></g><g id="Grupo_197" data-name="Grupo 197"><path id="Trazado_616" data-name="Trazado 616" class="cls-3" d="M594.35,400.38C566.08,514,463.37,598.21,341,598.21c-144.19,0-261.07-116.89-261.07-261.07S196.81,76.07,341,76.07a260,260,0,0,1,166.81,60.24"/><path id="Trazado_617" data-name="Trazado 617" class="cls-3" d="M269.06,123c118.28-37.68,244.67,27.71,282.3,146s-27.76,244.67-146,282.29-244.67-27.76-282.3-146a224.85,224.85,0,0,1-8.35-99.65"/></g></g></svg>