<svg id="Capa_1" data-name="Capa 1" xmlns="http://www.w3.org/2000/svg" viewBox="0 0 1116.75 868.17"><defs><style>.cls-1{fill:#fff;}</style></defs><path class="cls-1" d="M838.1,279.16H706a141.47,141.47,0,0,0-122.57,71l-.3-213.7-18.49,0,.3,214.74a141.33,141.33,0,1,0,9,119.52,141.56,141.56,0,0,0,123,90.82L697.14,727l18.49,0-.3-236.5A141.35,141.35,0,1,0,838.1,279.16ZM441.76,543.39A122.87,122.87,0,1,1,564.63,420.52,123,123,0,0,1,441.76,543.39ZM696.9,543A123,123,0,0,1,583.13,421.1h.39V410.91A123,123,0,0,1,706,297.65h62.29a141.47,141.47,0,0,0-71.54,122.87h0Zm141.2.35A123,123,0,0,1,715.24,420.52h0A123,123,0,0,1,838,297.65h.13a122.87,122.87,0,1,1,0,245.74Z"/><g id="Grupo_152" data-name="Grupo 152"><path id="Trazado_225" data-name="Trazado 225" class="cls-1" d="M160.41,605.38a11.82,11.82,0,0,1,4.53,5.65V591.94h8.88v46.93h-8.88v-7.35a12,12,0,0,1-4.53,5.67,13.15,13.15,0,0,1-7.58,2.13,15.09,15.09,0,0,1-8-2.16,14.52,14.52,0,0,1-5.55-6.24,24.09,24.09,0,0,1,0-19.22,14.52,14.52,0,0,1,5.55-6.24,15.09,15.09,0,0,1,8-2.16A13.36,13.36,0,0,1,160.41,605.38Zm-11.51,8.44a12.24,12.24,0,0,0,0,14.93,9.6,9.6,0,0,0,13.41-.06,11.75,11.75,0,0,0,0-14.84,8.87,8.87,0,0,0-6.69-2.76,8.75,8.75,0,0,0-6.73,2.73Z"/><path id="Trazado_226" data-name="Trazado 226" class="cls-1" d="M214.65,623H188.91a9.67,9.67,0,0,0,2.53,6.91,8.13,8.13,0,0,0,5.84,2.22,8.42,8.42,0,0,0,5.17-1.52,6.74,6.74,0,0,0,2.64-4.12h9.45a15.15,15.15,0,0,1-3,6.59,15.54,15.54,0,0,1-5.87,4.57,20.08,20.08,0,0,1-17.09-.54,15.38,15.38,0,0,1-6.22-6.24,21.85,21.85,0,0,1,0-19.19,15.2,15.2,0,0,1,6.22-6.24,18.88,18.88,0,0,1,9.13-2.16,18.53,18.53,0,0,1,9.11,2.16,15.26,15.26,0,0,1,6,5.93A17.19,17.19,0,0,1,215,620,16.36,16.36,0,0,1,214.65,623Zm-10.94-10.46a8.53,8.53,0,0,0-6-2.22,8.81,8.81,0,0,0-6.09,2.22,9.09,9.09,0,0,0-2.72,6.53H206a7.86,7.86,0,0,0-2.24-6.53Z"/><path id="Trazado_227" data-name="Trazado 227" class="cls-1" d="M250.29,605.45a14.52,14.52,0,0,1,5.55,6.24,24.09,24.09,0,0,1,0,19.22,14.52,14.52,0,0,1-5.55,6.24,15.06,15.06,0,0,1-8,2.16,13.13,13.13,0,0,1-7.58-2.13,11.58,11.58,0,0,1-4.47-5.67v7.35h-8.94V591.93h8.94V611a11.39,11.39,0,0,1,4.47-5.65,13.36,13.36,0,0,1,7.58-2.09A15,15,0,0,1,250.29,605.45Zm-17.46,8.4a10.29,10.29,0,0,0-2.64,7.45,10.19,10.19,0,0,0,2.64,7.38,9.61,9.61,0,0,0,13.41.07,10.45,10.45,0,0,0,2.53-7.45,10.57,10.57,0,0,0-2.53-7.49,9.55,9.55,0,0,0-13.41,0Z"/><path id="Trazado_228" data-name="Trazado 228" class="cls-1" d="M264.69,590.13a6.51,6.51,0,0,1,8,0,4.47,4.47,0,0,1,1.52,3.52,4.38,4.38,0,0,1-1.52,3.45,6.51,6.51,0,0,1-8,0,4.44,4.44,0,0,1-1.52-3.45A4.54,4.54,0,0,1,264.69,590.13Zm8.43,13.6v35.13h-8.94V603.73Z"/><path id="Trazado_229" data-name="Trazado 229" class="cls-1" d="M322.17,607a16,16,0,0,1,5.68,10H318.4a7.24,7.24,0,0,0-2.6-4.41,8,8,0,0,0-5.14-1.62,7.65,7.65,0,0,0-5.92,2.64,13.66,13.66,0,0,0,0,15.41,7.65,7.65,0,0,0,5.92,2.64A8,8,0,0,0,315.8,630a7.3,7.3,0,0,0,2.6-4.41h9.45a16.06,16.06,0,0,1-5.68,10,17.39,17.39,0,0,1-11.31,3.68,18.78,18.78,0,0,1-9.14-2.19,15.38,15.38,0,0,1-6.21-6.25,21.82,21.82,0,0,1,0-19.18,15.18,15.18,0,0,1,6.21-6.24,18.89,18.89,0,0,1,9.14-2.16A17.33,17.33,0,0,1,322.17,607Z"/><path id="Trazado_230" data-name="Trazado 230" class="cls-1" d="M359.65,605.44a15.82,15.82,0,0,1,6.44,6.25,19.05,19.05,0,0,1,2.34,9.61,18.7,18.7,0,0,1-2.34,9.57,16.07,16.07,0,0,1-6.44,6.25,20.63,20.63,0,0,1-18.46,0,16.07,16.07,0,0,1-6.44-6.25,18.7,18.7,0,0,1-2.34-9.57,19.05,19.05,0,0,1,2.34-9.61,15.88,15.88,0,0,1,6.44-6.25,20.89,20.89,0,0,1,18.46,0Zm-15.57,8.21a12.54,12.54,0,0,0,0,15.29,8.93,8.93,0,0,0,12.68,0,12.54,12.54,0,0,0,0-15.29,8.94,8.94,0,0,0-12.68,0Z"/><path id="Trazado_231" data-name="Trazado 231" class="cls-1" d="M396.12,605.38a11.82,11.82,0,0,1,4.53,5.65V591.94h8.88v46.93h-8.88v-7.35a12,12,0,0,1-4.53,5.67,13.17,13.17,0,0,1-7.58,2.13,15.07,15.07,0,0,1-8-2.16,14.52,14.52,0,0,1-5.55-6.24,24.09,24.09,0,0,1,0-19.22,14.52,14.52,0,0,1,5.55-6.24,15.07,15.07,0,0,1,8-2.16A13.36,13.36,0,0,1,396.12,605.38Zm-11.51,8.44a12.24,12.24,0,0,0,0,14.93,9.6,9.6,0,0,0,13.41-.06,11.75,11.75,0,0,0,0-14.84,8.89,8.89,0,0,0-6.69-2.76A8.73,8.73,0,0,0,384.61,613.82Z"/><path id="Trazado_232" data-name="Trazado 232" class="cls-1" d="M431.79,605.16a13.69,13.69,0,0,1,7.23-1.93v9.57h-2.6q-9.84,0-9.83,9.13v16.93h-8.94V603.73h8.94v6.72A14.65,14.65,0,0,1,431.79,605.16Z"/><path id="Trazado_233" data-name="Trazado 233" class="cls-1" d="M444.47,590.13a6.51,6.51,0,0,1,8,0,4.5,4.5,0,0,1,1.52,3.52,4.43,4.43,0,0,1-1.52,3.45,6.51,6.51,0,0,1-8,0,4.38,4.38,0,0,1-1.52-3.45A4.5,4.5,0,0,1,444.47,590.13Zm8.43,13.6v35.13H444V603.73Z"/><path id="Trazado_234" data-name="Trazado 234" class="cls-1" d="M482.39,605.38a11.34,11.34,0,0,1,4.5,5.65v-7.29h8.88v35.13h-8.88v-7.35a11.54,11.54,0,0,1-4.5,5.67,13.4,13.4,0,0,1-7.61,2.13,15.09,15.09,0,0,1-8-2.16,14.52,14.52,0,0,1-5.55-6.24,24.09,24.09,0,0,1,0-19.22,14.52,14.52,0,0,1,5.55-6.24,15.09,15.09,0,0,1,8-2.16A13.45,13.45,0,0,1,482.39,605.38Zm-11.54,8.44a10.58,10.58,0,0,0-2.54,7.48,10.42,10.42,0,0,0,2.54,7.45,9.6,9.6,0,0,0,13.41-.06,10.25,10.25,0,0,0,2.64-7.39,10.37,10.37,0,0,0-2.64-7.45,8.83,8.83,0,0,0-6.69-2.76A8.73,8.73,0,0,0,470.85,613.82Z"/><path id="Trazado_235" data-name="Trazado 235" class="cls-1" d="M534.52,607.22a16.14,16.14,0,0,1,3.61,11.23v20.41h-8.87v-19.4a9.22,9.22,0,0,0-2.16-6.5,7.67,7.67,0,0,0-5.9-2.32,8,8,0,0,0-6.09,2.48,10.11,10.11,0,0,0-2.28,7.1v18.65h-8.94V603.74h8.94v7a11.19,11.19,0,0,1,4.6-5.55,13.63,13.63,0,0,1,7.39-2A12.48,12.48,0,0,1,534.52,607.22Z"/><path id="Trazado_236" data-name="Trazado 236" class="cls-1" d="M568.38,606.52a14,14,0,0,1,4.82,8.63h-8.37a7,7,0,0,0-2.28-4.06,6.88,6.88,0,0,0-4.63-1.52,5.26,5.26,0,0,0-3.55,1.08,3.61,3.61,0,0,0-1.27,2.91,3,3,0,0,0,1,2.35,7.34,7.34,0,0,0,2.54,1.39c1,.34,2.48.75,4.38,1.21a45.94,45.94,0,0,1,6.5,1.87,10.84,10.84,0,0,1,4.31,3.11,8.56,8.56,0,0,1,1.81,5.74,8.87,8.87,0,0,1-3.52,7.29,14.89,14.89,0,0,1-9.48,2.79,17.82,17.82,0,0,1-11-3.08,12.89,12.89,0,0,1-5-8.78h8.57a5.78,5.78,0,0,0,2.28,4.09,8.27,8.27,0,0,0,5.14,1.49,4.93,4.93,0,0,0,3.48-1.11,3.71,3.71,0,0,0,1.21-2.88,3.2,3.2,0,0,0-1.05-2.48,7,7,0,0,0-2.6-1.45c-1-.34-2.5-.74-4.4-1.21a48.35,48.35,0,0,1-6.38-1.81,10.19,10.19,0,0,1-4.18-2.94,8.34,8.34,0,0,1-1.75-5.59,9.13,9.13,0,0,1,3.49-7.41,14.8,14.8,0,0,1,9.64-2.86A15.53,15.53,0,0,1,568.38,606.52Z"/><path id="Trazado_237" data-name="Trazado 237" class="cls-1" d="M600.85,638.87l-11.61-15.35v15.35H580.3V591.94h8.94v26.37l11.55-14.58h10.59l-14.78,17.5,15.16,17.63Z"/><path id="Trazado_238" data-name="Trazado 238" class="cls-1" d="M622.09,603.73l9.58,23.85,8.88-23.85h9.83l-21.5,51.87H619l7.93-17.75-14.77-34.12Z"/><path id="Trazado_239" data-name="Trazado 239" class="cls-1" d="M462.92,681.54a14.6,14.6,0,0,1,5.55,6.25,24.06,24.06,0,0,1,0,19.21,14.6,14.6,0,0,1-5.55,6.25,15.07,15.07,0,0,1-8,2.16,13.25,13.25,0,0,1-7.58-2.13,11.69,11.69,0,0,1-4.47-5.67V731.7h-8.94V679.83h8.94v7.29a11.49,11.49,0,0,1,4.47-5.65,13.36,13.36,0,0,1,7.58-2.09A15.07,15.07,0,0,1,462.92,681.54Zm-17.47,8.4a11.78,11.78,0,0,0,0,14.84,8.85,8.85,0,0,0,6.69,2.76,8.75,8.75,0,0,0,6.72-2.7,12.24,12.24,0,0,0,0-14.93,8.76,8.76,0,0,0-6.72-2.73A8.89,8.89,0,0,0,445.45,689.94Z"/><path id="Trazado_240" data-name="Trazado 240" class="cls-1" d="M485.75,668V715h-8.94V668Z"/><path id="Trazado_241" data-name="Trazado 241" class="cls-1" d="M519.33,681.54a15.88,15.88,0,0,1,6.44,6.25,19.05,19.05,0,0,1,2.34,9.61,18.7,18.7,0,0,1-2.34,9.57,16.13,16.13,0,0,1-6.44,6.25,20.55,20.55,0,0,1-18.46,0,16.07,16.07,0,0,1-6.44-6.25,20.82,20.82,0,0,1,0-19.18,15.82,15.82,0,0,1,6.44-6.25,20.8,20.8,0,0,1,18.46,0Zm-15.57,8.21a12.54,12.54,0,0,0,0,15.29,8.94,8.94,0,0,0,12.69,0,12.58,12.58,0,0,0,0-15.29,9,9,0,0,0-12.69,0Z"/><path id="Trazado_242" data-name="Trazado 242" class="cls-1" d="M553.22,707.29V715h-4.69a12.91,12.91,0,0,1-9-2.85q-3.13-2.85-3.14-9.51V687.38h-4.89v-7.55h4.89v-8.69h8.94v8.69h7.86v7.54h-7.86v15.35a4.94,4.94,0,0,0,1,3.55,4.74,4.74,0,0,0,3.42,1Z"/><path id="Trazado_243" data-name="Trazado 243" class="cls-1" d="M580.18,715l-11.61-15.35V715h-8.94V668h8.94v26.38l11.54-14.59H590.7l-14.77,17.5L591.08,715Z"/><path id="Trazado_244" data-name="Trazado 244" class="cls-1" d="M595.9,666.23a6.51,6.51,0,0,1,8,0,4.47,4.47,0,0,1,1.52,3.52,4.39,4.39,0,0,1-1.52,3.45,6.51,6.51,0,0,1-8,0,4.46,4.46,0,0,1-1.52-3.45A4.54,4.54,0,0,1,595.9,666.23Zm8.44,13.6V715h-9V679.83Z"/><path id="Trazado_245" data-name="Trazado 245" class="cls-1" d="M643.08,683.32a16.14,16.14,0,0,1,3.62,11.22V715h-8.88v-19.4a9.21,9.21,0,0,0-2.16-6.5,7.67,7.67,0,0,0-5.9-2.32,7.92,7.92,0,0,0-6.09,2.48,10.16,10.16,0,0,0-2.28,7.1V715h-8.94V679.84h8.94v7a11.19,11.19,0,0,1,4.6-5.55,13.65,13.65,0,0,1,7.39-2A12.41,12.41,0,0,1,643.08,683.32Z"/></g></svg>