<svg id="Capa_1" data-name="Capa 1" xmlns="http://www.w3.org/2000/svg" viewBox="0 0 600 600"><defs><style>.cls-1{fill:#77c5b6;}</style></defs><path class="cls-1" d="M250.22,224c-13.53-5.77-27.39-4.39-41.32-2.2a12.5,12.5,0,0,0-.36,1.91c0,20.21,0,40.42-.09,60.63,0,2.77,1.65,3.08,3.58,3.11,6.67.11,13.37.52,20,.08,18.82-1.25,35.45-12.17,35.88-34C268.15,240.94,263.18,229.48,250.22,224Z"/><path class="cls-1" d="M300,38.48c-141.61,0-256.41,114.8-256.41,256.41S158.39,551.3,300,551.3,556.41,436.5,556.41,294.89,441.61,38.48,300,38.48Zm2,258.6c-10.1,12.74-23.87,20-39.3,24.18a140,140,0,0,1-49.71,4.2c-1.32-.12-2.66,0-4.69,0v77.93H159.92V186.91c9.29-1,18.53-2.57,27.83-3,16.58-.69,33.19-1.17,49.78-.85,16.27.31,32.21,3.09,46.73,11.11,18.08,10,28.69,25.36,31.61,45.72C318.85,260.73,315.35,280.24,302,297.08Zm114.86,99.06c-13.68,8.06-28.71,10.51-44.27,10.64-17.57.15-34.61-2.45-50.71-9.85-.61-.28-1.18-.64-2.23-1.21,2.9-11.67,5.76-23.14,8.64-34.74,5.69,2.3,11,4.84,16.5,6.59,11.12,3.52,22.36,6.36,34.25,4.35,8.75-1.48,13.43-6.25,13.11-13.86a10.72,10.72,0,0,0-5.81-9.47c-5.05-2.66-10.43-4.71-15.6-7.16-9-4.26-18.54-7.77-26.89-13.11-29.61-18.92-24-55.81-2.2-72.92,11.93-9.38,25.76-13.55,40.54-14.29,16.69-.85,33.08,1.32,48.65,7.9.72.3,1.41.67,2.25,1.08-2.89,11.23-5.74,22.3-8.49,33-8.23-2.45-16-5.11-24-7-6.65-1.61-13.51-1.93-20.21.28-4.74,1.57-8.26,4.35-9.12,9.6-.93,5.67,1.54,9.9,6.44,12.17,8.7,4,17.66,7.5,26.49,11.25,10.31,4.39,20.09,9.64,26.86,18.94A46.73,46.73,0,0,1,416.87,396.14Z"/></svg>