<svg id="Capa_1" data-name="Capa 1" xmlns="http://www.w3.org/2000/svg" viewBox="0 0 600 600"><defs><style>.cls-1{fill:#fff;}</style></defs><path class="cls-1" d="M258.09,299.06c10.68-5.37,18.76-11.36,24.3-17.83,9.85-11.65,14.71-27.1,14.71-46.25,0-18.64-4.86-34.57-14.58-47.93q-24.33-32.64-82.5-33.48H46.22V467.5h143.4a224.45,224.45,0,0,0,45-4.21q20.76-4.31,36-15.77a87.16,87.16,0,0,0,22.54-24.69q14.19-22.11,14.19-50.05,0-27-12.39-46T258.09,299.06Zm-148.42-91h69.27q22.83,0,37.62,4.89c11.4,4.73,17.1,14.36,17.1,29,0,13.16-4.35,22.37-12.94,27.55s-19.9,7.79-33.67,7.79H109.67ZM219.2,407.51c-7.66,3.7-18.44,5.53-32.25,5.53H109.67V329.32H188c13.65.1,24.27,1.9,31.87,5.28,13.52,6.12,20.25,17.32,20.25,33.7C240.13,387.61,233.17,400.62,219.2,407.51Z"/><rect class="cls-1" x="375.32" y="168.22" width="136.38" height="39.08"/><path class="cls-1" d="M559.08,322.43q-4.25-27.27-18.8-48-16-23.46-40.62-34.34T444.3,229.22q-51.72,0-84.14,32.18T327.74,354q0,64.35,36,92.92t82.88,28.56q56.93,0,88.55-33.83,20.24-21.35,22.79-42H495.09a50.94,50.94,0,0,1-12.68,16q-13.14,10.62-34.12,10.62c-13.3,0-24.56-2.93-34-8.76-15.52-9.33-23.63-25.68-24.66-49H561.14C561.4,348.47,560.75,333.05,559.08,322.43Zm-167.86,6q3.38-22.63,16.41-35.92c8.69-8.82,21-13.26,36.73-13.29,14.52,0,26.65,4.15,36.53,12.49s15.26,20.6,16.39,36.72Z"/></svg>