<?xml version="1.0" encoding="utf-8"?>
<!-- Generator: Adobe Illustrator 25.4.1, SVG Export Plug-In . SVG Version: 6.00 Build 0)  -->
<svg version="1.1" id="Capa_1" xmlns="http://www.w3.org/2000/svg" xmlns:xlink="http://www.w3.org/1999/xlink" x="0px" y="0px"
	 viewBox="0 0 600 600" style="enable-background:new 0 0 600 600;" xml:space="preserve">
<style type="text/css">
	.st0{fill:#FFFFFF;}
</style>
<path class="st0" d="M510.8,177.8c-21.3-36.8-51.8-67.4-88.6-88.6C384.9,67.4,344.2,56.5,300,56.5s-84.9,10.9-122.2,32.7
	c-36.8,21.3-67.4,51.8-88.6,88.6C67.4,215.1,56.5,255.8,56.5,300s10.9,84.9,32.7,122.2c21.3,36.8,51.8,67.4,88.6,88.6
	c37.3,21.8,78.1,32.7,122.2,32.7s84.9-10.9,122.2-32.7c36.8-21.3,67.4-51.8,88.6-88.6c21.8-37.3,32.7-78,32.7-122.2
	S532.6,215.1,510.8,177.8z M300,92c52.4,0,98.2,17.3,137.3,52l-4,5.5c-1.6,2.2-5.6,6.5-11.9,12.8c-6.5,6.5-13.4,12.5-20.8,18.1
	c-7.5,5.7-17.7,12.2-30.6,19.5c-13.2,7.5-27,13.9-41.2,19.2c-24.3-44.8-50.3-85.2-78-121.1C266.9,94.1,283.4,92.1,300,92z M137,171
	c19.8-25.2,45.2-45.4,74.2-59c26.2,34.9,52,74.8,77.4,119.8c-64.2,16.9-128.3,25.4-192.1,25.4C103,225.7,116.9,196.1,137,171
	L137,171z M106,375c-9.3-23.9-14.1-49.3-13.9-75c0-2.2,0.1-4.4,0.3-6.7c76.5,0,147.7-9.8,213.4-29.5c6.8,13.1,12.4,24.8,16.8,35.2
	c-1.3,0.6-2.7,1.1-4.1,1.4c-1.9,0.5-3.3,0.9-4.1,1.1l-11.7,4.1c-8,3-18.6,8-31.6,15.2s-26.8,15.7-41.4,25.7
	c-14.6,9.9-29.6,23.1-45.2,39.5c-15.2,15.9-28.3,33.6-39.2,52.8C128.4,420.1,115.1,398.5,106,375z M300,508
	c-49.5,0-93.6-15.9-132.5-47.6l4.8,3.5c7.4-16.3,18.3-31.9,32.7-46.9s28.2-27.1,41.5-36.3c13.9-9.6,28.4-18.2,43.4-26
	c15.6-8.1,26.3-13.3,32-15.5c5.7-2.2,10.3-4,13.6-5.2l0.6-0.3h0.6c20.7,54.3,35.5,107,44.4,157.9C355.5,502.4,327.9,508,300,508z
	 M475,412.4c-15.3,23.8-35.2,44.3-58.6,60.1c-8.7-48.6-22.2-98.2-40.6-148.7c42.1-6.6,85.3-3.5,129.7,9.2
	C501,361.3,490.6,388.3,475,412.4z M504.8,297.1c-2.1-0.4-4.8-0.9-7.9-1.4s-7-1.2-11.6-1.9c-4.5-0.7-9.6-1.4-15.2-2.1
	c-5.6-0.6-11.6-1.2-17.9-1.7c-6.3-0.5-13.1-1-20.3-1.3c-7.2-0.3-14.5-0.5-21.9-0.5c-7.4,0-15.2,0.2-23.3,0.6
	c-8.1,0.4-16,1.2-23.6,2.2c-0.9-1.7-1.7-3.4-2.4-5.2c-1-2.4-1.6-4.3-2.1-5.5c-4-8.9-8.7-18.9-14-30.1c14.4-5.8,28.3-12.6,41.7-20.5
	c11-6.2,21.5-13.1,31.7-20.6c7.9-6,15.4-12.4,22.5-19.2c7.1-6.8,11.7-11.5,13.8-14.1c2.1-2.6,4.1-5.2,6-7.8l0.3-0.3
	c30.9,37.6,46.6,81,47.2,130L504.8,297.1z"/>
</svg>
