<?xml version="1.0" encoding="utf-8"?>
<!-- Generator: Adobe Illustrator 25.4.1, SVG Export Plug-In . SVG Version: 6.00 Build 0)  -->
<svg version="1.1" id="Capa_1" xmlns="http://www.w3.org/2000/svg" xmlns:xlink="http://www.w3.org/1999/xlink" x="0px" y="0px"
	 viewBox="0 0 600 583" style="enable-background:new 0 0 600 583;" xml:space="preserve" class="red_social">
<style type="text/css">
	.st0{fill:#FFFFFF;}
</style>
<path id="linkedin" class="st0" d="M502.6,460.3h0.1V311.6c0-72.8-15.7-128.8-100.7-128.8c-40.9,0-68.3,22.4-79.5,43.7h-1.2v-36.9h-80.6v270.7h84
	v-134c0-35.3,6.7-69.4,50.4-69.4c43.1,0,43.7,40.3,43.7,71.7v131.7H502.6z"/>
<path id="linkedin" class="st0" d="M104,189.6h84v270.7h-84V189.6z"/>
<path id="linkedin" class="st0" d="M146,54.8c-26.9,0-48.7,21.8-48.7,48.7c0,26.9,21.8,49.1,48.7,49.1s48.7-22.3,48.7-49.1
	C194.7,76.6,172.9,54.9,146,54.8z"/>
</svg>
