<svg id="Capa_1" data-name="Capa 1" xmlns="http://www.w3.org/2000/svg" viewBox="0 0 223.33 211.05"><defs><style>.cls-1{fill:#fff;}</style></defs><path class="cls-1" d="M44.06,91.76c.12.2.2.28.2.37,0,.64,0,1.28,0,1.92-.06.82-.17,1.64-.25,2.46-.07.59-.17,1.19-.2,1.78,0,.93,0,1.85-.05,2.78,0,.07.05.16,0,.22-.37,1.07,0,2.13,0,3.19,0,.68-.07,1.35,0,2a14.09,14.09,0,0,0,.34,1.63,2.09,2.09,0,0,0,.34-1.35c0-1.48-.06-3,0-4.43.05-1.09.26-2.18.39-3.26a2.28,2.28,0,0,0,0-.45,12,12,0,0,1,.2-2.6c.15-1.25.26-2.52.46-3.77.16-1,.42-2,.65-3a.56.56,0,0,1,.18-.32c.22-.16.21-.35.22-.59a5,5,0,0,1,.18-1c.05-.19.11-.38.17-.57l.3-.91a4.84,4.84,0,0,0,.18-.49,16.5,16.5,0,0,1,.85-2.85c.69-1.36,1.1-2.83,1.79-4.18a3.82,3.82,0,0,1,.7-1.2,1.32,1.32,0,0,0,.3-.59c.15-.52.12-1.08.68-1.43.16-.1.13-.47.26-.68.44-.77.91-1.53,1.39-2.28a2.92,2.92,0,0,1,.46-.47A1.44,1.44,0,0,0,54,69.65a.63.63,0,0,1,.48-1.05,6,6,0,0,1,1.31.12c.19-.25.44-.61.71-1a.69.69,0,0,1,.26-.25.75.75,0,0,0,.45-.65A1.58,1.58,0,0,1,58,65.77a5.17,5.17,0,0,0,.55-.5.37.37,0,0,1,.59,0c.19.21,0,.37-.12.51s-.53.46-.77.72a3.27,3.27,0,0,0-.67.87,4,4,0,0,1-1,1.47c-.54.49-.47.86.17,1.22l.78.45c.34.18.6.12.72-.24a1.09,1.09,0,0,1,.47-.64.45.45,0,0,0,.18-.31A2.16,2.16,0,0,1,60,67.82c.22-.13.3-.24.1-.5l-.82.3a4.18,4.18,0,0,1,1-2.12c.58-.54,1.14-1.11,1.64-1.61a8.18,8.18,0,0,0,1.2.55c.66.16.53-.52.81-.86a.93.93,0,0,0,1.17-.66c.24-.59.75-.82,1.26-1.12a.46.46,0,0,1,0,.73,6.17,6.17,0,0,0-1.45,1.39c-.07.11-.27.13-.4.2s-.37.15-.42.28c-.18.49-.6.72-1,1s-.4.58-.66.8a29,29,0,0,0-2.2,2.51c-.15.16-.33.31-.48.47a2.58,2.58,0,0,0-.36.38c-.18.26-.32.54-.5.8s-.25.58.11.82.91.52,1.36.78c.09,0,.22.07.26.14.29.56.87.5,1.35.68a7.23,7.23,0,0,1,1.86.74,5.1,5.1,0,0,0,1.25.5c1.21.44,2.42.91,3.65,1.32a12.33,12.33,0,0,0,1.82.42,2.72,2.72,0,0,1,1.33.46,1.31,1.31,0,0,0,.47.24c1,.3,2.08.65,3.14.88s2.31.37,3.46.56c.89.15,1.77.35,2.66.46a8.33,8.33,0,0,0,1.41,0,.34.34,0,0,0,.2-.09c.66-.8,1.54-.66,2.4-.54,1.09.15,1.51-.14,1.67-1.24a1.24,1.24,0,0,1,0-.22,4.62,4.62,0,0,0,.52-1.85.08.08,0,0,1,0-.07c.54-.45.42-1.09.54-1.68a12.25,12.25,0,0,1,.76-2.18c.39-1,.82-2,1.23-3,0-.09,0-.22.11-.28.52-.5.55-1.21.8-1.82a17.45,17.45,0,0,1,1-2.1,19.24,19.24,0,0,0,1.21-2.66c.28-.71.69-1.37,1-2.07.16-.33.28-.69.42-1,.4-1,.76-1.91,1.2-2.84a12.66,12.66,0,0,1,.9-1.43c.32-.48.62-1,1-1.41a2.79,2.79,0,0,1,1.81-1.29c.23,0,.56-.19.61-.36a7.7,7.7,0,0,1,1.1-1.6c.25-.4.5-.81.78-1.19s.6-.73.89-1.1.45-.64.71-1a2.61,2.61,0,0,0-1.62-.09c-.32,0-.64.1-1,.13a1.82,1.82,0,0,0-1.75,1.08,3.31,3.31,0,0,0-1.09,0,18.8,18.8,0,0,0-1.88.87c-.14.06-.26.21-.39.21a1.1,1.1,0,0,1-.6-.2c-.18-.16-.07-.36.11-.51s.16-.16.16-.24a.72.72,0,0,0-.1-.47.48.48,0,0,0-.46-.06,1.26,1.26,0,0,1-1.28.12.66.66,0,0,0-.37,0,18.33,18.33,0,0,0-4.07,1.22A37.2,37.2,0,0,0,86,49.36c-1.45.87-2.95,1.64-4.41,2.48-.78.45-1.52.95-2.28,1.42a1.87,1.87,0,0,1-.45.26,1.83,1.83,0,0,0-1.22.82c-.15.26-.63.36-1,.46a13.38,13.38,0,0,1-1.39.26c.16-.17.25-.37.37-.39.64-.1,1-.63,1.53-.91s.84-.69,1.41-.81c.17,0,.29-.27.45-.39s.57-.38.87-.55.79-.41,1.16-.65c.91-.56,1.81-1.14,2.71-1.72a3.12,3.12,0,0,0,.35-.31.75.75,0,0,0-.87-.13c-.45.2-.85.5-1.29.74s-.75.37-1.13.56l-.72.38a11.76,11.76,0,0,1-1,.57c-.22.09-.54.16-.66-.15s.13-.45.38-.54a3.66,3.66,0,0,0,.43-.15c.17-.08.33-.18.5-.27l.52-.24c.2-.08.46-.11.59-.25a1.35,1.35,0,0,1,1.06-.46.79.79,0,0,0,.59-.23,3,3,0,0,1,1.68-.92c2.22-.81,4.46-1.59,6.7-2.39.56-.2,1.11-.44,1.68-.61a3.51,3.51,0,0,1,1-.16c1,0,1.07-.07,1.28-1.11a4.09,4.09,0,0,0-.5,0c-.2,0-.39.08-.59.1s-.58.12-.64-.2.32-.28.54-.34a3.69,3.69,0,0,1,.74-.12,6.4,6.4,0,0,0,3.38-1.27,2.94,2.94,0,0,1,.6-.26c.12,0,.27,0,.36-.08a12.52,12.52,0,0,1,3.21-1.28c.51-.19,1-.39,1.55-.53a9.6,9.6,0,0,1,2.81-.55c.53,0,1-.1,1.58-.12,1.13-.06,2.27-.16,3.41-.13,1.8.06,3.59.19,5.39.34.79.06,1.56.26,2.35.38.35,0,.7,0,1,.06,1,.14,2.11.29,3.16.46.32.05.73,0,.79.57a1.27,1.27,0,0,1-.4.09c-1.43-.25-2.85-.52-4.28-.78-.09,0-.2-.09-.29-.07a7.24,7.24,0,0,1-2.41-.27,18,18,0,0,0-1.94.06,1.14,1.14,0,0,1-.45,0,10.3,10.3,0,0,0-3.71-.21c-1.32,0-2.64.19-4,.22a14.78,14.78,0,0,0-2.47.58c-.07,0-.13.07-.21.07a5.86,5.86,0,0,0-1.47.2,11.56,11.56,0,0,1-1.34.59,16,16,0,0,0-2.06.86.5.5,0,0,0-.3.21,3.06,3.06,0,0,0,1.91.18l1.19-.1c.72,0,1.44-.13,2.17-.13a4.37,4.37,0,0,1,1.48.19,3.34,3.34,0,0,1,1.1.74,1.43,1.43,0,0,0,1.16.46,11.17,11.17,0,0,1,2.83,0,4.14,4.14,0,0,0,1-.07l7-.1s.05,0,.07,0a13.93,13.93,0,0,0,2.5.24c.52.11,1.07,0,1.62.13.93.15,1.89.11,2.83.22a20.07,20.07,0,0,1,2.89.5c.76.21,1.54.08,2.3.22s1.27.22,1.91.31c.27,0,.54.06.81.11s.47.1.7.15.43.12.65.15a7,7,0,0,0,.8.1,11.43,11.43,0,0,1,2.7.53c1,.31,2.07.53,3.1.82a.73.73,0,0,0,.76-.1c.31-.3.61-.16.94.05.67.43,1.37.81,2.06,1.21a.57.57,0,0,0,.22.07c.76.18.76.18.49,1,.61.58,1.25,1.22,1.93,1.8,1,.85,2,1.67,3.09,2.49.43.34.89.64,1.33,1,.78.61,1.59,1.21,2.33,1.87s1.09,1.17,1.67,1.72c1,1,2.08,1.94,3.12,2.91.24.22.47.44.7.68s.52.59.8.87c.9.91,1.84,1.77,2.69,2.71a42.07,42.07,0,0,1,3.23,3.84,12.26,12.26,0,0,1,2.07,3.1,3.52,3.52,0,0,0,.55.81c.47.67,1,1.32,1.41,2s.72,1.25,1.06,1.88a5.83,5.83,0,0,1,.22.71c0,.14.06.34.16.4.65.42.75,1.16,1.05,1.78.5,1,1,2.06,1.55,3a24.41,24.41,0,0,1,1.06,2.39,4.11,4.11,0,0,0,.67,1.32,4,4,0,0,1,1.06,2.11c.21,1,.39,1.91.55,2.87a3.76,3.76,0,0,1,0,.67,3.41,3.41,0,0,0,0,.55,3.82,3.82,0,0,1,.14.56c.09,1.22.19,2.43.25,3.65s.12,2.5.12,3.74c0,1-.07,2-.12,3,0,.22-.09.43-.1.65,0,.52-.1,1-.09,1.56,0,.35.31.36.56.3s.42-.19.63-.24c.43-.11.65,0,.78.46,0,.07,0,.15,0,.22.29.94,0,1.31-1,1.14s-1.17-.1-1.05,1a1.17,1.17,0,0,1-.2.92,1.11,1.11,0,0,0-.24.62c0,1.12-.44,2.2-.41,3.33a2.33,2.33,0,0,1-.19,1.09,2.48,2.48,0,0,0-.24,1.46,1.45,1.45,0,0,1-.16.86,1.59,1.59,0,0,0-.24,1.28.78.78,0,0,1-.05.36c-.11.32-.21.65-.34,1a4.48,4.48,0,0,0-.3,1.75,7.62,7.62,0,0,1-.37,1.66c0,.07,0,.17,0,.22-.51.64-.41,1.5-.83,2.18-.15.24-.07.62-.21.87-.37.67-.58,1.41-.94,2.09a3.86,3.86,0,0,1-.55.79,1.12,1.12,0,0,0-.32.81c0,.44.09.92-.45,1.17a.14.14,0,0,0-.08.12c-.09.92-.82,1.5-1.23,2.24a20.43,20.43,0,0,1-1.17,2,15.91,15.91,0,0,1-1.4,1.56,7.92,7.92,0,0,0-1.51,2.09,8.67,8.67,0,0,1-2.21,3.16c-.05.05-.12.1-.14.17-.27.82-1.09,1.09-1.63,1.63a1,1,0,0,0-.3.48,1.34,1.34,0,0,1-.59.82,12.06,12.06,0,0,0-1,1c-.25.23-.49.46-.81.23a8.82,8.82,0,0,1-.75,1,7.78,7.78,0,0,1-1.08.71c-.07.41-.48.71-.94,1s-.87.67-1.32,1c-.7.48-1.41.93-2.11,1.41a2,2,0,0,0-.61.54c-.58,1.06-1.54,1.82-2.2,2.83-.4.62-1,1.11-1.46,1.7a7.85,7.85,0,0,0-1,1.71l1-.55a1.25,1.25,0,0,1-.92,1.05,2.17,2.17,0,0,0-1,.72c-.58.53-1.05,1.2-1.67,1.68a8.67,8.67,0,0,1-2.81,1.84l-.26-.52c-.09,0-.15,0-.19,0l-4.32,1.69a4.64,4.64,0,0,1-.51.11,1.18,1.18,0,0,0-.85.75c-.45,1.14-1,2.25-1.48,3.37a1.41,1.41,0,0,1-1.1.92,1,1,0,0,1-1-.43.62.62,0,0,1-.05-.53c0-.09.3-.16.45-.13.79.12.95,0,1.12-.73a3.22,3.22,0,0,1,.72-1.7c.15-.16.15-.48.23-.77-.19,0-.27,0-.33,0a18,18,0,0,1-3.46.91,15.08,15.08,0,0,0-2.58,1c-1.28.55-2.52,1.2-3.82,1.72a22.9,22.9,0,0,1-3.7,1.22,7.14,7.14,0,0,1-2.72.41.55.55,0,0,0-.22,0,12.27,12.27,0,0,1-3.42.17c-.47,0-.94-.07-1.41-.11-.13,0-.27-.08-.37,0a27,27,0,0,1-3,.62,3.73,3.73,0,0,1-1,0,1.16,1.16,0,0,0-.37,0,11.22,11.22,0,0,1-3.64.32c-1,0-2,.16-3,.14-1.33,0-2.65-.08-4-.1-.7,0-1.39,0-2.09,0a8.94,8.94,0,0,1-1-.12c-.55-.07-1.09-.18-1.63-.23-1.17-.13-2.35-.21-3.52-.35a7.75,7.75,0,0,1-1.15-.29c-1.19-.29-2.37-.57-3.55-.88a2.22,2.22,0,0,1-.57-.37l0-.15a1.29,1.29,0,0,1,.45-.11,21,21,0,0,1,2.38.37,5.22,5.22,0,0,1,1.86.44.24.24,0,0,0,.14,0c.82-.18,1.56.26,2.34.3.13,0,.28.07.37,0,.43-.26.8,0,1.21,0a17.61,17.61,0,0,0,2.2,0,.85.85,0,0,0-.85-.32,1.75,1.75,0,0,1-1.13-.33,1.23,1.23,0,0,0-.39-.21c-.56-.14-1.12-.28-1.68-.39a2.71,2.71,0,0,1-1.52-.55.31.31,0,0,0-.21-.07,9.59,9.59,0,0,1-2.77-.81c-1.12-.37-2.27-.55-3.4-.85a14.7,14.7,0,0,0-1.76-.3,13.78,13.78,0,0,1-3.21-.95c-.64-.27-1.31-.47-2-.73-1.22-.49-2.45-1-3.65-1.53-.6-.28-1.1-.79-1.71-1a12.66,12.66,0,0,1-1.68-1.08c-.45-.26-.83-.63-1.26-.93s-.64-.4-.92-.64c-.56-.46-1.09-1-1.64-1.42-.32-.28-.69-.5-1-.8-.66-.71-1.28-1.45-1.91-2.18L61,151.89a.79.79,0,0,1-.14-.18,9.17,9.17,0,0,0-1.69-2.18c-.14-.17-.25-.37-.38-.55l-1.59-2.25c-.49-.7-.95-1.41-1.45-2.09-.82-1.13-1.29-2.48-2.13-3.59-.58-.75-.81-1.65-1.36-2.39-.18-.24-.36-.48-.52-.73-.4-.66-.81-1.31-1.18-2s-.85-1.64-1.29-2.45a15.44,15.44,0,0,1-1.38-3.78,2.06,2.06,0,0,0-.12-.35c-.32-.73-.67-1.44-1-2.18a11.59,11.59,0,0,1-.25-1.17,32.76,32.76,0,0,0-.95-3.43,15.57,15.57,0,0,1-.77-3.31c-.22-1.58-.61-3.13-.82-4.72-.16-1.2-.44-2.4-.59-3.61a1.92,1.92,0,0,1,0-.22,22,22,0,0,0-.43-3.8c-.06-.84,0-1.7,0-2.55,0-1.12,0-2.25,0-3.37s.17-2.5.25-3.75c0-.37,0-.75.05-1.12a3.71,3.71,0,0,1,.22-1.77c.1-.17,0-.44,0-.66A3.56,3.56,0,0,1,44.06,91.76ZM127.19,136l0-.15-1.16-.15-3.87-.42a1.23,1.23,0,0,1-.44-.09,2.75,2.75,0,0,0-1.6-.2,4.69,4.69,0,0,1-.53,0l-5.06-.45h-.23c-.51,0-1,.25-1.51-.16,0,0-.15,0-.22,0a25.75,25.75,0,0,1-4-.16c-.82-.07-1.62.16-2.45,0a15.17,15.17,0,0,0-2.53-.1,8,8,0,0,0-1.55.1,6.34,6.34,0,0,1-1.84.2,3,3,0,0,0-1.19,0,11.26,11.26,0,0,1-2.3.26,14.16,14.16,0,0,0-3.7.55,9.44,9.44,0,0,1-2.22.33l-1.73.24c.09.22.21.36.31.34a10.3,10.3,0,0,1,2.22,0,5.61,5.61,0,0,0,1.64,0,5.21,5.21,0,0,1,1.76-.2c1,.1,2.09,0,3.13.05.66,0,1.31.17,2,.26v.19a7,7,0,0,1-2,.28c-.53,0-1.07-.16-1.6-.16s-1.19.13-1.79.16c-1.24.07-2.49.11-3.73.19a18.3,18.3,0,0,0-2.09.23c-.73.13-.86.53-.39,1.1a2.33,2.33,0,0,1,.42.53,5.5,5.5,0,0,0,1.69,2.07,3.66,3.66,0,0,1,.8,1.29,1.31,1.31,0,0,1-1.12-.32c-.51-.55-1-1.1-1.48-1.67-.22-.27-.27-.71-.52-.89a4.74,4.74,0,0,1-1.13-1.63.85.85,0,0,0-.19-.19c-.35.15-.22.39-.15.58q.45,1.2.93,2.37c.42,1,.86,2,1.28,3,.6,1.43,1.18,2.87,1.79,4.29.14.34.33.64.5,1l.19-.07-.27-1.82.17-.05a2.05,2.05,0,0,1,.22.41,3.24,3.24,0,0,0,.89,1.62,2.52,2.52,0,0,1,.54.72c.42.93.78,1.89,1.22,2.81.36.76.8,1.49,1.2,2.23.15.28.32.56.45.85a11.3,11.3,0,0,0,.69,1.49c.66.95,1.29,1.9,1.88,2.9s1.23,1.56,1.82,2.37a.89.89,0,0,0,1,.38c.32,0,.64-.14,1-.19s.45.21.29.43c-.37.53-.76,1.07-1.54,1h-.75c0,.12-.06.15,0,.17a21.31,21.31,0,0,0,.94,2.25,5.84,5.84,0,0,1,.77,2.78c0,.37-.19.49-.51.48a1.17,1.17,0,0,1-1.08-.8c-.34-.81-.67-1.62-1.08-2.39a6.92,6.92,0,0,1-1-2,1.51,1.51,0,0,0-.28-.53,28.23,28.23,0,0,1-2.82-5.18.94.94,0,0,0-.14-.26c-.29-.38-.6-.74-.86-1.13a16.34,16.34,0,0,1-1-1.82,14.48,14.48,0,0,1-.74-2c-.21-.65-.77-1.07-1-1.74-.31-1-.86-1.85-1.26-2.79a3.11,3.11,0,0,0-.56-1.12,2.65,2.65,0,0,0-.77-1.95,2.31,2.31,0,0,1-.2-.56,4.2,4.2,0,0,0-.17-.5A22.52,22.52,0,0,1,87,141.53c-.34-1.09-.85-2.12-1.28-3.17a1,1,0,0,0-1.43-.58,4.33,4.33,0,0,1-2.1.45,11,11,0,0,0-1.82.34c-.8.19-1.61.35-2.41.51-.12,0-.29,0-.35.06-.59.6-1.42.57-2.13.87s-1.61.51-2.41.77c-.57.18-1.13.38-1.69.59a7.72,7.72,0,0,0-1,.43c-.43.24-.82.57-1.27.78-1,.49-2,.91-3,1.38-.72.34-1.4.77-2.14,1.06a1,1,0,0,0-.73.79,1.54,1.54,0,0,0,.25.26,1.49,1.49,0,0,1,.67,1.09,5.17,5.17,0,0,0,.8,1.59,21.57,21.57,0,0,0,1.67,2c.4.42.64.94,1,1.38a30.33,30.33,0,0,0,2.12,2.42c1.28,1.32,2.6,2.6,3.91,3.89a2.11,2.11,0,0,0,.31.21c.25.2.51.39.76.6s.32.41.53.52a15,15,0,0,1,1.94,1.6,14.55,14.55,0,0,0,1.42,1.06c1,.56,1.93,1.06,2.9,1.58a7.17,7.17,0,0,1,1,.52,9.8,9.8,0,0,0,3.32,1.59,3.06,3.06,0,0,0,1.45.23,5.07,5.07,0,0,1,1.41.14c0,.57.28.77.77.91.89.26,1.75.59,2.63.87s2,.67,3.06,1a11.24,11.24,0,0,1,1.69.29c.54.25,1.18.06,1.64.49,1.14.17,2.27.35,3.41.5a10.5,10.5,0,0,0,1.48.09,9.2,9.2,0,0,0,1-.12c.36,0,.73-.1,1.1-.13.92-.06,1.85-.1,2.77-.17.47,0,.93-.14,1.4-.2.27,0,.55,0,.84-.05a2,2,0,0,1,.14-.45c.13-.26.35-.53.63-.42a9.81,9.81,0,0,0,2.16.19,5.41,5.41,0,0,0,2.23,0,8.41,8.41,0,0,1,1.39-.3,5,5,0,0,0,1.08-.24,6.28,6.28,0,0,1,2.18-.44,18.51,18.51,0,0,0,2.4-.45c.66,0,1.28-.44,1.94-.53s1.24-.54,1.93-.44c.07,0,.15-.05.22-.07.51-.12,1-.25,1.53-.35a3.66,3.66,0,0,0,1.78-.72,1.35,1.35,0,0,1,1-.37,1.55,1.55,0,0,0,1.21-.64c.23-.27.46-.61.76-.72a25.05,25.05,0,0,0,2.22-1.22,14,14,0,0,0,2.44-1.44,1.75,1.75,0,0,0,.7-1.11c.11-.43.22-.86.34-1.29s.25-1.07.42-1.59c.23-.71.52-1.39.75-2.1a8.34,8.34,0,0,1,.81-2.55c.09-.13.06-.34.1-.51a18.41,18.41,0,0,1,.75-2.9,16.45,16.45,0,0,0,.75-3.27c.08-.39.11-.79.22-1.17.17-.6.4-1.18.6-1.77,0-.07,0-.15,0-.22l.18-1.32c0-.22.09-.44.11-.67a.48.48,0,0,0-.39-.56c-.79-.23-1.58-.48-2.37-.69-1.11-.29-2.23-.55-3.35-.81s-2-.54-3.06-.7c-1.85-.29-3.71-.5-5.57-.75-.72-.09-1.42-.27-2.14-.33-1.37-.11-2.74-.17-4.11-.23l-5-.23-2.17-.1c-.42,0-.84,0-1.26,0-1.12.05-2.25.13-3.37.19a1.32,1.32,0,0,1-.35-.12,2.32,2.32,0,0,1,.83-.17c.2,0,.46,0,.57-.1a1.88,1.88,0,0,1,1.4-.43c.87,0,1.75,0,2.62,0a22,22,0,0,0,2.29-.1,8.73,8.73,0,0,1,2.84.05,5.2,5.2,0,0,0,1.84.11,5.11,5.11,0,0,1,2.3.1A7,7,0,0,0,127.19,136ZM99.88,81.06c-.46-.34-.83-.55-1.33-.36a.5.5,0,0,1-.36,0,3.63,3.63,0,0,0-2-.23,12.65,12.65,0,0,1-2.29-.26c-.71-.12-1.45,0-2.16-.16a15.92,15.92,0,0,0-3.71-.27.65.65,0,0,0-.71.6c-.12.83-.21,1.67-.36,2.49a13.86,13.86,0,0,0-.28,3.86c.11,1.29,0,2.6,0,3.9a2.72,2.72,0,0,1-.17.36,9,9,0,0,0-.32-1.68A2.83,2.83,0,0,1,86,87.75a1,1,0,0,0-.45-1,6.61,6.61,0,0,0-.15.71,11.41,11.41,0,0,1-.12,1.19C85,89.81,85,91,84.63,92.18a12.68,12.68,0,0,0-.27,2.31c-.07.75,0,1.51-.17,2.24a28.78,28.78,0,0,0-.51,4.9,3,3,0,0,1-.31,1.6,1.22,1.22,0,0,0-.08.58c0,.7.09,1.39.09,2.08s.14.87.8.89,1.39,0,2.09,0c1.59,0,3.19.06,4.79.12.9,0,1.8.14,2.69.18s1.76,0,2.63,0,1.5.09,2.25.12a4.69,4.69,0,0,1,1.25.06,6.86,6.86,0,0,0,1.85.24c.45,0,.89.12,1.34.18a3.06,3.06,0,0,0,.51.1c.88,0,1.76,0,2.65,0l4.64,0c1.6,0,3.2,0,4.8,0,2.74,0,5.49,0,8.24,0,.42,0,.84.1,1.27.09,1.32,0,2.64-.13,4-.15,1.1,0,2.2.06,3.3.09a5.3,5.3,0,0,0,1.19,0,24.18,24.18,0,0,1,4.42-.09c1.26,0,2.53,0,3.8-.11a5.72,5.72,0,0,1,.59,0c.35,0,.69,0,1,0,.57,0,1.14-.09,1.72-.13l1.65-.1a7.31,7.31,0,0,0-.28-2.62c-.15-1.08-.42-2.15-.5-3.24a16.4,16.4,0,0,0-.41-3.42c0-.11-.06-.3,0-.36.54-.5.32-1.14.21-1.69-.16-.84.18-1.81-.54-2.53,0,0,0-.09,0-.14-.25-.81-.47-1.62-.79-2.41-.4-1-.59-2.09-1-3.11-.2-.51-.24-1.08-.42-1.59-.29-.88-.68-1.72-.95-2.6s-.52-2-.79-3c-.13-.48-.29-1-.44-1.42s-.38-1-.5-1.47a9.45,9.45,0,0,0-1.14-2.76c-.4.15-.76.28-1.12.43-.64.27-1.27.57-1.91.84a20.64,20.64,0,0,0-1.93.81,4.94,4.94,0,0,1-1.95.71c-.23,0-.45.1-.39.48,1.23-.16,2.44-.39,3.67-.58s2.38-.81,3.65-1a.58.58,0,0,1-.47.79c-1,.28-2,.52-3,.78a10.67,10.67,0,0,1-1.44.33,11.46,11.46,0,0,0-2.58.41,22,22,0,0,1-3.16.58,9.83,9.83,0,0,0-2.24.57c-.83.34-1.7.55-2.56.82-.64.2-1.28.4-1.93.58s-1.35.38-2,.52c-.3.07-.66.12-.83-.4a1.82,1.82,0,0,1,.56-.12c.8.11,1.28-.41,1.81-.84-.14-.29-.33-.23-.53-.15a3.51,3.51,0,0,1-1.67.27,8.28,8.28,0,0,0-1.72.1l-3.1.31c-.71.06-1.44-.25-2.14.11-.07,0-.19,0-.29,0q-.44,0-.87.06c-.2,0-.4.06-.59,0a30.2,30.2,0,0,0-4.94-.11,4.51,4.51,0,0,1-.52,0h-2.61a1.74,1.74,0,0,0-.45.06l-2,.5a.41.41,0,0,1-.15,0c-.16-.09-.37-.15-.47-.29s.07-.31.17-.43S99.68,81.19,99.88,81.06ZM82.88,119a3.62,3.62,0,0,0-.19,1.77,5.54,5.54,0,0,0,.4,1.59c.58,1.5.4,3.17,1,4.66a6.66,6.66,0,0,0,.45,2.34,12.51,12.51,0,0,0,1.08,3.19,3.4,3.4,0,0,1,.21.56c.21.53.41,1.07.63,1.61a.5.5,0,0,0,.66.33c.32-.1.29-.37.2-.62s-.24-.61-.36-.9a1.47,1.47,0,0,1-.11-1.14,5.45,5.45,0,0,1,.52,1.45c.18.88.43,1,1.28.88a3.42,3.42,0,0,1,.45,0l2.15-.17c.12,0,.24-.09.36-.11a21.64,21.64,0,0,1,2.86-.49,14.17,14.17,0,0,0,3.61-.39,4.23,4.23,0,0,1,1.19-.09h2.82c.85,0,1.7-.08,2.54-.09s1.64,0,2.45,0a18.35,18.35,0,0,1,3.07.18,11.41,11.41,0,0,0,2.4.08c1.3,0,2.59.11,3.88.23s2.28.29,3.41.44a.4.4,0,0,0,.22,0,2,2,0,0,1,1.4,0l1.92.31c.22,0,.45,0,.67,0a15,15,0,0,0,3.59.56,1.35,1.35,0,0,1,.52.08c1.06.38,2.25.09,3.29.6.08,0,.2,0,.29,0a16.23,16.23,0,0,1,2,.36,3.27,3.27,0,0,1,1.2.71,1,1,0,0,0,1.18.35l.53-.16c.19.68.19.68.79.61a1.21,1.21,0,0,1,.38,0l3.06.7c.78.19,1.55.39,2.33.55a.65.65,0,0,0,.53-.13,2.46,2.46,0,0,0,.38-1c.11-.89.16-1.79.22-2.68q.18-3,.35-5.91c.09-1.43.2-2.85.23-4.28,0-1.2,0-2.4,0-3.61s0-2.45,0-3.68a2.06,2.06,0,0,1,.36-1,.94.94,0,0,1,.94-.29c.3.19.2.49.17.76s-.07.34-.09.51a9.53,9.53,0,0,0-.15,1.49c.06,1.55.07,3.09,0,4.64-.17,2.75-.27,5.5-.44,8.25a15.23,15.23,0,0,1-.39,3.56,1.68,1.68,0,0,0-.05.67,5.42,5.42,0,0,1-.19,2.08,2.28,2.28,0,0,0,0,.74.32.32,0,0,0,.2.25.34.34,0,0,0,.31-.14,4.33,4.33,0,0,0,.26-1c.05-.39,0-.8,0-1.2.12-1.47.72-2.86.75-4.35,0-.12.06-.24.08-.36.08-.58.46-1.12.25-1.75,0-.08,0-.19.07-.28a10.62,10.62,0,0,0,.48-3.11c.14-2,.22-4,.31-6,0-1.12.09-2.24.13-3.36,0-.2,0-.41,0-.61a19.34,19.34,0,0,1-.18-3.88.74.74,0,0,0-.05-.36c-.24-.64.05-1.34-.26-2,0-.07.06-.19.06-.29a2.4,2.4,0,0,0,0-.6c-.13-.61-.41-.79-1.06-.71a5,5,0,0,1-.67,0l-1.64-.08c-.23,0-.45,0-.67-.07a4,4,0,0,0-1-.06,5.63,5.63,0,0,1-1.79-.11c-.15,0-.31-.15-.43-.12-1,.27-1.93-.3-3-.1a11.42,11.42,0,0,1-2.61,0c-.95,0-1.9-.13-2.84-.16s-1.64,0-2.46,0c-1.27,0-2.55,0-3.82.07-1.59.12-3.18-.22-4.77,0a.57.57,0,0,1-.22,0,14.85,14.85,0,0,0-3.25.13c.13.28.45.47.17.83a2.26,2.26,0,0,1-.63-.07,9,9,0,0,0-2.35-.34,15.1,15.1,0,0,0-1.78,0,18.06,18.06,0,0,0-3.29,0c-1.43.17-2.88.17-4.33.2-1.17,0-2.34,0-3.51,0a3.91,3.91,0,0,1-2.22-.58,1.93,1.93,0,0,0-1.79-.21,1.31,1.31,0,0,1-.44.07l-3.89,0c-.1,0-.19,0-.29,0-.45,0-.89.09-1.34.11-.72,0-1.44,0-2.16,0a22,22,0,0,1-2.69,0,6.7,6.7,0,0,0-2.64,0c-.73.19-.86.16-.93.89-.14,1.54-.28,3.09-.35,4.63a18.59,18.59,0,0,0,.15,2.24,3.93,3.93,0,0,0,.48,1.8,2.71,2.71,0,0,1,.21.78,4.48,4.48,0,0,0,.14.73c.48,1.21.6,2.51,1,3.74a30,30,0,0,1,.69,3c.32,1.3.67,2.59,1,3.89,0,0-.06.06-.1.11-.29,0-.3-.3-.36-.5a16.64,16.64,0,0,1-.66-2.15c-.37-2.09-1.34-4-1.67-6.12a1.55,1.55,0,0,0-.19-.56,1.53,1.53,0,0,1-.17-1.3A.77.77,0,0,0,82.88,119Zm57.43-45.64a3.48,3.48,0,0,0,.62-.18c.87-.43,1.75-.85,2.6-1.31,1.28-.68,2.54-1.39,3.81-2.08.13-.07.28-.1.41-.17a3.32,3.32,0,0,0,.88-.53,8.38,8.38,0,0,1,2.06-1.34,17.88,17.88,0,0,0,2.06-1.31,12.76,12.76,0,0,1,2-1.4,5.49,5.49,0,0,0,1.66-1.48,5.62,5.62,0,0,1,.68-.7,1,1,0,0,1,1,.08.85.85,0,0,1,0,.91,1.31,1.31,0,0,1-.35.39c-1.06.83-2.1,1.69-3.21,2.46a14.39,14.39,0,0,0-1.88,1.22,2.77,2.77,0,0,1-.67.32c-.33.16-.66.32-1,.51s-.4.29-.61.42c-1,.6-2,1.21-3,1.8s-1.78,1-2.67,1.46c-.06,0-.15,0-.21.06-.31.15-.61.31-.91.47a3.22,3.22,0,0,1-.65.36c-.84.25-1.48.87-2.35,1.18l.55,1.52a5.13,5.13,0,0,1,.27.84,8.83,8.83,0,0,0,.65,2.57,9.7,9.7,0,0,1,.56,2.55c.1.45.13.91.22,1.48a1.31,1.31,0,0,1,.31.51c.21,1.26,1.1,2.33,1.05,3.67a.21.21,0,0,0,0,.07,13.83,13.83,0,0,1,.9,2.53c.24.54.42,1.11.61,1.68.26.85.51,1.7.76,2.56a1.93,1.93,0,0,1,.06.42,4.28,4.28,0,0,0,.07.72c.33,1,.71,2.05,1,3.09.18.58.07,1.25.6,1.71,0,0,0,.14.05.22.12,1.27.79,2.42.89,3.7a15,15,0,0,0,.29,1.59c.3.08.35.39.35.74,0,.68,0,.63.67.81a4.58,4.58,0,0,0,1.61,0c1-.06,2-.15,3-.12s1.87,0,2.82,0c1.23-.07,2.48.14,3.73,0a14.83,14.83,0,0,1,1.49,0c1.35,0,2.69,0,4-.08,1.55-.07,3.1-.22,4.64-.3,1.22-.06,2.45-.06,3.67-.1.59,0,.76-.17.76-.77,0-1,0-1.94,0-2.91-.11-2-.28-3.94-.42-5.91a2.26,2.26,0,0,1,0-.45c.16-1.06-.35-2.06-.29-3.11a.21.21,0,0,0,0-.07c-.17-.75-.35-1.5-.51-2.25s-.24-1.38-.42-2c-.24-.91-.54-1.81-.83-2.72-.11-.35-.23-.7-.36-1a19.5,19.5,0,0,0-1.19-3.31,5.34,5.34,0,0,1-.27-.7c-.3-.74-.57-1.49-.91-2.22-.48-1.06-1-2.1-1.53-3.15-.34-.69-.64-1.41-1-2.08s-.72-1.07-1.09-1.6c-.54-.76-1.09-1.5-1.62-2.25s-.89-1.32-1.35-2c-.07-.09-.21-.13-.3-.21l-1-1c.43-.71.44-.78.15-1.07-.69-.69-1.38-1.38-2.08-2-.09-.1-.26-.12-.48-.21a3.55,3.55,0,0,0,.87,1.59,2.92,2.92,0,0,1,.75,1.73,3.26,3.26,0,0,1-.44-.35c-.17-.21-.31-.44-.47-.66-.69-1-1.38-1.91-2.08-2.85a21.74,21.74,0,0,0-2.07-2.65c-.62-.61-1.21-1.25-1.87-1.82-1.14-1-2.18-2.08-3.39-2.94-.94-.66-1.7-1.51-2.66-2.13-.81-.53-1.51-1.2-2.26-1.8a1,1,0,0,0-.25-.17c-.89-.45-1.77-.9-2.67-1.31s-1.68-.76-2.54-1.09-2-.75-3-1.06a19.36,19.36,0,0,0-2.39-.58c-.78-.14-1.58-.19-2.37-.31a10.12,10.12,0,0,0-1.16-.26c-.61,0-1.2-.3-1.83,0-.14.07-.37-.1-.57-.13-.52-.07-1-.14-1.56-.17s-.94,0-1.42,0h-.52a1,1,0,0,0,.08.28c.49.69,1,1.35,1.48,2.08a15.64,15.64,0,0,0,1.47,2.32,15.75,15.75,0,0,1,1.38,2,1,1,0,0,1,.2.55c-.06.61.3.94.65,1.36a5.7,5.7,0,0,1,1.17,1.88,3.28,3.28,0,0,0,1,1.59,3.24,3.24,0,0,1,.61.72,7.64,7.64,0,0,1,.6,1.26c.2.55.53,1,.78,1.59a7.83,7.83,0,0,1,.6,1.44,7.17,7.17,0,0,0,.73,1.62,13.4,13.4,0,0,1,.42,1.74,8.44,8.44,0,0,1,.58,1.45,4.09,4.09,0,0,0,.66,1.32,4.29,4.29,0,0,1,.78,2.6A2.52,2.52,0,0,0,140.31,73.34ZM88,78.88v.21a8.46,8.46,0,0,0,1.91.27,12,12,0,0,1,2.16,0c.27,0,.54.1.81.14l3.09.5a.66.66,0,0,0,.37,0,4.67,4.67,0,0,1,2.29,0c.77.05,1.54.33,2.34.31s1.64,0,2.46,0a1.7,1.7,0,0,1,.6.05,6.61,6.61,0,0,0,2.34.17c.83,0,1.65.09,2.48.1a9.28,9.28,0,0,0,3.48-.15,3.11,3.11,0,0,1,1.09,0,4.45,4.45,0,0,0,.73,0c.25,0,.49-.12.73-.15,1-.12,1.94-.22,2.91-.31a14.89,14.89,0,0,0,1.64-.12,7.53,7.53,0,0,1,2.76,0,.88.88,0,0,0,.36,0c.89-.21,1.78-.42,2.67-.65a10.16,10.16,0,0,1,1.58-.4,5.21,5.21,0,0,0,2.05-.66,11.32,11.32,0,0,1,1.26-.49l.76-.3,1.06-.38c.49-.16,1-.31,1.46-.5s.89-.45,1.34-.65.75-.29,1.11-.46c.74-.33,1.47-.71,2.23-1s.83-.38.64-1.16c-.31-1.26-.67-2.5-1-3.74-.1-.36-.29-.69-.42-1-.41-1.09-.78-2.2-1.22-3.28-.32-.81-.69-1.61-1.09-2.39s-.94-1.64-1.41-2.46a1.48,1.48,0,0,1-.2-.47,5.31,5.31,0,0,0-1-2.31c-.85-1.28-1.75-2.54-2.5-3.9a9.41,9.41,0,0,0-.58-1A54.18,54.18,0,0,1,126,48.25a3.74,3.74,0,0,0-4-1.65,11.73,11.73,0,0,1-2.29-.06.59.59,0,0,1-.34-.13.33.33,0,0,1,0-.53.8.8,0,0,1,.47-.2,15.86,15.86,0,0,1,3.51.08c.46.05,1,.16,1.33-.21a.67.67,0,0,1,1-.06,3.55,3.55,0,0,0,1.85.53c.38,0,.75.28,1.13.3s.78-.24,1.15-.21c1.27.1,2.54.26,3.8.43a25.61,25.61,0,0,0,2.57.45,10.7,10.7,0,0,1,2.52.63c.83.23,1.64.57,2.46.86a14.18,14.18,0,0,1,3.52,1.44,1.6,1.6,0,0,0,.45.16l.08-.13a5.72,5.72,0,0,1-.83-.8,2.87,2.87,0,0,0-1.61-1c-1.56-.46-3.13-.88-4.7-1.26s-3.08-.65-4.63-1a4.91,4.91,0,0,0-.67-.08c-1.24-.12-2.48-.18-3.71-.36-1-.15-2-.37-3.08-.43a18.15,18.15,0,0,0-2.69-.3,19.48,19.48,0,0,1-2.74-.13l-2-.12c-.26,0-.53-.08-.79-.08l-2.37,0c-1.08,0-2.16,0-3.24,0-1.82.09-3.63.22-5.45.35A1.13,1.13,0,0,0,106,45a13,13,0,0,0-1.55,1.41c-.78.91-1.5,1.87-2.24,2.81-.09.12-.15.26-.23.39s-.33.55-.52.81c-.83,1.19-1.68,2.36-2.49,3.56-.7,1-1.2,2.18-2,3.15a6.68,6.68,0,0,0-.71,1c-.48.9-.9,1.83-1.39,2.71-.78,1.4-1.6,2.77-2.41,4.15a2.18,2.18,0,0,0-.11.27c-.22.56-.42,1.12-.65,1.67a8.28,8.28,0,0,0-.46,1c-.45,1.84-1.5,3.47-1.79,5.36a3.25,3.25,0,0,1-.22.56c-.4,1.17-.79,2.35-1.19,3.53,1.19.63,2.49.33,3.62.78.52-.4.52-.4,1.09-.26a11.93,11.93,0,0,0,2.67.06c.42,0,.85,0,1.27,0,.92,0,1.84,0,2.76,0s1.8-.14,2.69-.17a12.84,12.84,0,0,0,2.4,0,5.37,5.37,0,0,1,1.32-.17,5.17,5.17,0,0,0,1.47-.2,10.41,10.41,0,0,1,1.46-.27,9.5,9.5,0,0,0,1.42-.09,11.11,11.11,0,0,1,3-.26c.42,0,.82.1,1.13-.32.08-.1.33-.08.5-.1s.59,0,.89-.08l2.59-.38c.29-.05.58-.13.87-.16a8.18,8.18,0,0,1,1.84-.12,1.06,1.06,0,0,0,.83-.1,1.71,1.71,0,0,1,1.14-.3,10.63,10.63,0,0,0,1.79-.1c.91-.17,1.8-.43,2.69-.64.1,0,.23-.06.3,0s.4.22.47.39a.53.53,0,0,1-.22.5c-.63.31-1.25.76-2,.46a1.65,1.65,0,0,0-.66,0c-.69.08-1.38.21-2.08.24a4.73,4.73,0,0,0-1.83.23,1.35,1.35,0,0,1-.66.13,4.56,4.56,0,0,0-2.6.36c-.08,0-.2,0-.29,0a4.53,4.53,0,0,0-.74,0c-.44.08-.87.22-1.31.29-1,.15-1.92.26-2.87.4l-3.52.55c-.91.13-1.82.32-2.74.36-1.1,0-2.18.27-3.27.35-.32,0-.65,0-1,0-.79,0-1.59,0-2.38,0a11.14,11.14,0,0,1-2.38,0,1,1,0,0,0-.52,0,3.45,3.45,0,0,1-1.56.1c-.48,0-1,.25-1.43-.09a.25.25,0,0,0-.15,0l-2.37.22a1,1,0,0,1-.51-.06A2,2,0,0,0,90,78.76a8.81,8.81,0,0,1-.89,0C88.72,78.77,88.37,78.83,88,78.88Zm-6.13,3.55c.19,0,.47,0,.62.13s0,.41-.06.62-.15.26-.18.41c-.15.9-.28,1.81-.43,2.72a30.17,30.17,0,0,0-.4,4.93c0,1-.05,2,0,2.93s-.17,2-.06,3a6,6,0,0,1-.1,3c0,.06,0,.14,0,.22.07,1.19.15,2.39.22,3.58l.15,2.25c0,.22.07.41.33.42s.27-.23.29-.43q.28-2.82.58-5.66a6,6,0,0,0,0-1.47,4.5,4.5,0,0,1,0-1.27c.13-1,.32-2.08.45-3.12.1-.77.11-1.55.22-2.32s.28-1.67.45-2.49a4.79,4.79,0,0,0,.27-1.67.44.44,0,0,1,0-.15l.6-2.22a12.27,12.27,0,0,0,.39-1.44c.06-.5,0-1,.45-1.37.07-.06,0-.24.07-.36.11-.53.24-1.06.35-1.6a6.9,6.9,0,0,0,.14-1.1c0-.42-.16-.5-.59-.46a3,3,0,0,1-.52,0c-.82-.08-1.64-.15-2.46-.27s-1.43-.26-2.14-.39c-.17,0-.34,0-.51-.07-.73-.14-1.51,0-2.18-.42-.09-.06-.24,0-.36,0-.56,0-1.15.12-1.67-.27-.09-.07-.29,0-.44,0a10.47,10.47,0,0,1-3.25-.8,2.87,2.87,0,0,0-.92-.28c-.7,0-1.3-.4-2-.44A13.87,13.87,0,0,1,67.79,76a20.74,20.74,0,0,1-2.4-.74c-.33-.11-.65-.27-1-.41a6.16,6.16,0,0,0-.74-.33,16.24,16.24,0,0,1-4.17-1.64,7.28,7.28,0,0,0-1.43-.59.48.48,0,0,0-.64.22c-.32.53-.67,1.05-1,1.6a13.77,13.77,0,0,0-1.6,3.46c0,.07-.08.12-.11.19-.29.58-.61,1.15-.85,1.75-.45,1.13-.87,2.28-1.29,3.43-.23.63-.43,1.27-.66,1.9s-.09,1.57-.66,2.2c-.07.08,0,.25,0,.37a11.06,11.06,0,0,1-.4,1.9,7.05,7.05,0,0,0-.68,2.46.53.53,0,0,1-.12.35,1.21,1.21,0,0,0-.24.84c0,.26.06.6-.33.84a2.09,2.09,0,0,1-.1-.53A5.74,5.74,0,0,1,49.64,92a6.91,6.91,0,0,0,.37-2.2,3.91,3.91,0,0,1,.2-.87c.17-.67.37-1.34.53-2a14.15,14.15,0,0,1,1.15-3.87A.57.57,0,0,0,52,82.8a5.49,5.49,0,0,1,.89-2.53,9.26,9.26,0,0,0,.87-2.46,1.32,1.32,0,0,1,.23-.62,18,18,0,0,0,1.37-2.47,13.7,13.7,0,0,0,.86-1.66l.62-1.31-1.53-.92c-.23.28-.42.54-.63.78A3.58,3.58,0,0,0,53.79,73a1.06,1.06,0,0,1-.44.58,1.11,1.11,0,0,0-.48.72,3.21,3.21,0,0,1-.48,1.08,5.49,5.49,0,0,0-.81,1.67c-.07.18-.13.38-.22.56-.46.91-.93,1.82-1.37,2.74a15.66,15.66,0,0,0-.63,1.52c-.22.65-.4,1.33-.59,2-.33,1.13-.68,2.25-1,3.39-.22.82-.35,1.66-.55,2.48a30.3,30.3,0,0,0-.77,3.86c0,.5,0,1,0,1.5-.16,1.39-.45,2.77-.51,4.16-.07,1.7,0,3.4.06,5.1a4.6,4.6,0,0,1,0,.74c-.12,1.21.13,1.69,1.12,1.72l1.43.07a1.58,1.58,0,0,1,.44,0,4.68,4.68,0,0,0,1.93.19,13.42,13.42,0,0,1,2.38.23,8.2,8.2,0,0,0,1.48.18c1.4,0,2.8.1,4.2.14.17,0,.34-.05.51-.06l1,0a14.42,14.42,0,0,0,2.08,0,10.19,10.19,0,0,1,1.46-.16c.87,0,1.75-.15,2.62-.15,1.87,0,3.72-.2,5.58-.22,1.15,0,2.3-.15,3.45-.19s2.34,0,3.52,0c.69,0,1-.38.71-1a11.21,11.21,0,0,1-.37-2.88,17.42,17.42,0,0,1,.18-3c.2.22.37.32.39.45a10.56,10.56,0,0,1,.14,1.26c0,.24,0,.5.33.63a3.81,3.81,0,0,0,.17-1.25c0-.72-.35-1.49.17-2.13a5.37,5.37,0,0,1-.19-.9c-.06-1.4-.15-2.8-.12-4.19a32.91,32.91,0,0,1,.1-5.25A41.63,41.63,0,0,1,81.42,84Zm-36.4,27.91c-.37.17-.43.36-.34.61a5.33,5.33,0,0,1,.22,2.14c0,.82.08,1.65,0,2.47a9.9,9.9,0,0,0,.34,2.49c.08.39.18.78.23,1.18a25.31,25.31,0,0,0,.89,4.39,12.82,12.82,0,0,1,.52,1.55,12.8,12.8,0,0,0,.45,1.56,3,3,0,0,0,.41,1.11.74.74,0,0,1,.15.48,2.24,2.24,0,0,0,.4,1.33,5,5,0,0,1,.78,1.82,6.45,6.45,0,0,0,.67,1.73,13.91,13.91,0,0,0,.67,1.26,6.22,6.22,0,0,0,1.13,1.9,1.17,1.17,0,0,1,.24.38,9.31,9.31,0,0,0,1.93,2.64c.52.49,1.06,1,1.58,1.48.3.3.58.62.86.94a4.47,4.47,0,0,0,.34.4,17.46,17.46,0,0,0,4,2.49c0-.24.05-.42,0-.53a14.83,14.83,0,0,1-1.2-2.47c-.44-1.17-1.07-2.26-1.61-3.38-.22-.45-.42-.91-.6-1.37-.3-.76-.6-1.52-.87-2.29s-.51-1.57-.72-2.36a.81.81,0,0,1,.2-.89c.36,0,.47.27.57.53l.9,2.29,1.5,3.76c.25.62.47,1.26.76,1.87.46,1,.93,2,1.44,3a5.44,5.44,0,0,0,.89,1.19.71.71,0,0,0,.62.09c.47-.21.91-.49,1.36-.74.1-.06.2-.17.31-.18.52,0,1-.42,1.53-.26a.7.7,0,0,0,.42-.12c1.2-.65,2.39-1.32,3.6-2a3,3,0,0,1,.42-.16l2.52-.93a.83.83,0,0,0,.63-.75c.07-.62.51-.88,1.07-1l1.39-.31,1.61-.34c.83-.17,1.67-.32,2.49-.51s1.49-.38,2.24-.59,1.65-.16,2.2-.86a16.23,16.23,0,0,0-.72-2.62,12.74,12.74,0,0,1-.55-2.23c-.11-.41-.24-.81-.35-1.22-.18-.62-.38-1.23-.5-1.86a11.6,11.6,0,0,1-.22-1.76c0-1.08-.58-2.12-.22-3.23,0-.15,0-.35,0-.52,0-1-.5-1.82-.43-2.79a16.22,16.22,0,0,0-.06-2.09,16.59,16.59,0,0,1-.22-2,5.16,5.16,0,0,0-.11-1.11c-.08-.54-.21-1.07-.29-1.6-.15-1-.26-2-.42-3a.61.61,0,0,0-.34-.42,9.52,9.52,0,0,0-1.69-.2c-1.47,0-3,.08-4.42.09-.52,0-1-.09-1.57-.1-1,0-1.9,0-2.84,0s-1.75-.08-2.62-.09c-1.27,0-2.55,0-3.82,0a49.83,49.83,0,0,0-6.11.17,21.16,21.16,0,0,1-2.39,0c-.3,0-.6,0-.9,0-1,.08-2,.22-3,.24-1.42,0-2.84,0-4.26-.05a1.06,1.06,0,0,0-.31.11,2.12,2.12,0,0,0,.06.52,5.79,5.79,0,0,1,.34,2.44,3.37,3.37,0,0,0,0,.44c.13,1.07.22,2.15.42,3.2a8.93,8.93,0,0,0,.76,3.26,1.48,1.48,0,0,1,.1.36c.14.54.27,1.07.4,1.6a4.71,4.71,0,0,1,.24,1,8.17,8.17,0,0,0,.77,3c.46,1,.46,2.06,1.1,2.92a.32.32,0,0,1,0,.22,1.81,1.81,0,0,0,.52,1.29,2.38,2.38,0,0,1,.42,1.38c-.17-.09-.29-.12-.32-.18a22.65,22.65,0,0,1-1.3-2.61,11.23,11.23,0,0,0-.74-1.79,1.89,1.89,0,0,1-.25-.54,15.06,15.06,0,0,0-.92-3.16,2.14,2.14,0,0,1-.08-.44,14.47,14.47,0,0,0-.69-2.74,9.35,9.35,0,0,1-.63-2.72c0-.17-.05-.34-.08-.52a23.53,23.53,0,0,1-.57-3.76,10.59,10.59,0,0,0-.15-1.49A3,3,0,0,0,45.48,110.34Zm101,29.49c.31.13.53.25.76.33.49.18,1,.29,1.47.51,1.08.5,2.14,1,3.2,1.58a14.55,14.55,0,0,1,1.87,1.1c.85.61,1.64,1.3,2.45,2,.1.08.19.2.3.21s.4,0,.47-.07c.35-.49,1-.8,1.07-1.49,0-.18.2-.34.31-.5a5.62,5.62,0,0,0,.89-1.27,3.58,3.58,0,0,1,.8-1.24,4,4,0,0,0,.56-.79c.46-.77.88-1.56,1.34-2.33.62-1,1.28-2,1.9-3,.23-.38.32-.89.62-1.17a3.28,3.28,0,0,0,.93-1.58,4.29,4.29,0,0,1,.49-1c.25-.43.57-.82.8-1.27.79-1.55,1.56-3.12,2.33-4.69.61-1.23,1.18-2.48,1.79-3.71a27.35,27.35,0,0,0,1.33-2.72,4,4,0,0,1,.33-.83,22,22,0,0,0,1.24-2.29c.41-.8.91-1.54,1.4-2.3a.64.64,0,0,1,.83-.28c.44.15.61,0,.58-.48a1,1,0,0,0-.05-.3,3.74,3.74,0,0,1-.24-2.19,3.05,3.05,0,0,0,.05-.52,3.46,3.46,0,0,0-.32-1.55c-1.16,0-2.22,0-3.29,0-.58,0-1.15.07-1.72.09-.4,0-.8,0-1.19,0-.72,0-1.44.12-2.17.15s-1.25,0-1.87,0a5.6,5.6,0,0,1-1.79-.06,3.09,3.09,0,0,0-1.51,0,10.69,10.69,0,0,1-1.27.09c-.84,0-1.68-.07-2.52-.09-1.37,0-2.74.1-4.11.15l-3.67.1a2.1,2.1,0,0,0-.42.12c.45.42.5.45,1.17.35.33,0,.62,0,.78.28a.57.57,0,0,1,0,.48.71.71,0,0,1-.81.25,1.73,1.73,0,0,0-.43-.12c-.53-.07-.82.25-.65.76a.84.84,0,0,1-.09.84c-.7-.27-.26-.89-.44-1.34l-1.26-.3a2.23,2.23,0,0,0-.16,1.55,8.1,8.1,0,0,1,.26,1.55c.12,1.32.27,2.64.29,4,0,2.22,0,4.44-.05,6.66a45,45,0,0,1-.45,4.92,9,9,0,0,0-.28,2.13,1.74,1.74,0,0,1-.46,1.54.44.44,0,0,0-.11.34,10.57,10.57,0,0,1-.54,3.15c-.06.24-.13.48-.17.73-.14.86-.28,1.72-.41,2.57C146.56,139.09,146.53,139.43,146.49,139.83Zm9,7.58a1.63,1.63,0,0,0-.15-.32,12.76,12.76,0,0,0-2.61-2.68c-.53-.37-1.15-.6-1.68-1a25.87,25.87,0,0,0-3.53-1.77,3.92,3.92,0,0,0-1.08-.29c-.46-.07-.66,0-.71.45a13.64,13.64,0,0,1-1,3.19c-.09.25-.14.53-.25.78-.37.81-.75,1.62-1.14,2.42-.15.31-.33.6-.51.9a3.72,3.72,0,0,0-.22.38c-.24.74-.46,1.47-.69,2.21-.1.36-.18.73-.29,1.08-.25.89-.5,1.78-.77,2.66a14.22,14.22,0,0,1-.81,2.41c-.27.55-.2,1.17-.51,1.69a.47.47,0,0,0,.17.43c.1.06.33,0,.45-.13a3.16,3.16,0,0,1,1.74-.95.25.25,0,0,0,.14-.06,5.88,5.88,0,0,1,1.72-1.26c.55-.23.93-.82,1.43-1.19a13.86,13.86,0,0,1,1.4-.82l.82-.48.43-.26.81-.51a3.66,3.66,0,0,1,.68-.4,3.51,3.51,0,0,0,1.68-1.2,2.08,2.08,0,0,1,.43-.41,8.3,8.3,0,0,0,2.6-2.8c.27-.41.52-.84.8-1.24S155.25,147.69,155.47,147.41Zm11-8.92a12.39,12.39,0,0,1-1.33-.3.63.63,0,0,1-.41-.78c.08-.28.31-.35.76-.22l.07,0a1.18,1.18,0,0,0,1.42-.36,16.41,16.41,0,0,0,2.28-2.84c.23-.35.39-.75.59-1.12.54-1,1.12-1.88,1.62-2.86.4-.79.7-1.64,1-2.47.27-.67.51-1.36.81-2a22.18,22.18,0,0,0,1.12-3.64c.09-.33.39-.64.39-1a10,10,0,0,1,.61-2.31,23.69,23.69,0,0,0,.52-2.33,2.09,2.09,0,0,0-.11-1.5c-.6,1-1.14,2-1.7,2.92-.46.79-.6,1.73-1.15,2.5-.73,1-.95,2.31-1.81,3.26a.38.38,0,0,0-.07.21,5.41,5.41,0,0,1-.89,2.11,5.19,5.19,0,0,0-.65,1.34,7.68,7.68,0,0,1-.71,1.64c-.2.37-.67.63-.76,1a18.79,18.79,0,0,1-1.06,2.43,7.3,7.3,0,0,1-1,1.84c-.16.22-.35.42-.5.65-.43.69-.84,1.4-1.26,2.1-.18.3-.48.58-.52.89-.07.56-.46.86-.74,1.26a4,4,0,0,0-.31.41,13.92,13.92,0,0,1-1.44,2.36c-.38.49-.64,1.08-1.06,1.53a8.79,8.79,0,0,0-1.49,1.94,1.85,1.85,0,0,1-.25.37,3.22,3.22,0,0,0-.86,1.18,4.78,4.78,0,0,1-.95,1.19c0,.05,0,.14-.05.22.36.33.62.07.84-.14a4.2,4.2,0,0,1,1.08-.78,3.85,3.85,0,0,0,1.32-.95c.67-.84,1.58-1.41,2.31-2.2,1-1.07,2.07-2.07,3-3.22A5.18,5.18,0,0,0,166.44,138.49Zm-107.5,9.25c0,.11,0,.2,0,.25.43.58.86,1.17,1.31,1.73s1.09,1.24,1.61,1.88c.22.27.36.6.58.87.57.69,1.15,1.37,1.75,2s1.4,1.63,2.18,2.36c1.14,1.06,2.36,2,3.54,3.07l.12.09c1,.64,2,1.32,3.09,1.92a34.51,34.51,0,0,0,3.31,1.71c1.75.74,3.54,1.37,5.31,2.05.26.09.51.19.77-.05a1.64,1.64,0,0,0-1-.69,4.92,4.92,0,0,1-1.6-.75,6.7,6.7,0,0,0-1.33-.78c-.13-.08-.29-.11-.4-.19-.83-.65-1.65-1.3-2.46-2-.31-.25-.6-.53-.9-.79-1.06-.91-2.18-1.76-3.17-2.74-1.36-1.32-2.63-2.73-3.93-4.11a30.81,30.81,0,0,1-3.06-3.76c-.7-1-1.47-2-2.11-3.08-.36-.58-.58-.59-1.15-.18a3.5,3.5,0,0,1-2.34,1S59,147.69,58.94,147.74Zm90.17,7.7-.16-.16-.43.23c-.82.47-1.42,1.31-2.41,1.51-.07,0-.11.16-.18.22a2.08,2.08,0,0,1-.38.35c-1,.62-1.92,1.22-2.87,1.85-.45.3-.86.67-1.32.95-.78.49-1.59.93-2.37,1.41a1.71,1.71,0,0,0-.78,1.85,9.14,9.14,0,0,0,1.6-.55c.67-.37,1.51-.41,2-1a.49.49,0,0,1,.21-.08,5.83,5.83,0,0,0,3.49-2.08c.51-.67,1.17-1.25,1.68-1.94l1.28-1.72Zm28.17-55.35a.89.89,0,0,0,.34-.86c-.06-1-.11-2-.15-2.92,0-.3,0-.6,0-.9-.17-1.41-.32-2.82-.54-4.22a20.8,20.8,0,0,0-.67-2.83,5,5,0,0,1-.56-1.85.44.44,0,0,0-.1-.28,11.84,11.84,0,0,1-1-2.23c-.49-1.17-1.08-2.29-1.64-3.43,0-.09-.17-.14-.42-.32a2.44,2.44,0,0,0,.12.79,16.35,16.35,0,0,1,1.06,2.64c.19.45.33.94.48,1.41.22.72.43,1.44.66,2.16.29.92.6,1.84.9,2.77a.66.66,0,0,1,0,.14c.15.86.26,1.74.46,2.58a33.6,33.6,0,0,1,.71,5.18A11.59,11.59,0,0,0,177.28,100.09Zm-71.9-56.15,0-.21a3,3,0,0,0-.73-.3,13.67,13.67,0,0,0-3.44-.09,2.88,2.88,0,0,1-.59.07c-.78,0-1.55.05-2.32,0a3.48,3.48,0,0,0-1.79.49,2.31,2.31,0,0,0-1.16,1.15,2.84,2.84,0,0,0,1.48.24,12.23,12.23,0,0,0,2.81-.36,11.47,11.47,0,0,1,2-.37c.79-.12,1.58-.22,2.37-.35C104.52,44.15,105,44,105.38,43.94ZM55.16,141.68l-.15.15a14.68,14.68,0,0,0,3.55,4.92,4.21,4.21,0,0,1,.55-.88,4.56,4.56,0,0,1,1-.51,3.71,3.71,0,0,0-.49-.49c-.71-.45-1.45-.88-2.15-1.35-.31-.2-.56-.49-.85-.72C56.12,142.42,55.64,142.05,55.16,141.68Zm92.42-40.49h-.25a2.23,2.23,0,0,0-.11.66c.14,1,.31,1.9.48,2.85.13.76.26,1.52.43,2.28a.79.79,0,0,0,.35.42c.05,0,.29-.09.34-.19a1,1,0,0,0,0-.51c-.1-.49-.23-1-.34-1.46a10.59,10.59,0,0,0-.35-1.6,4.19,4.19,0,0,1-.39-1.94A1.35,1.35,0,0,0,147.58,101.19Zm-58,6.61c-.66,0-1.31,0-2,0a18.07,18.07,0,0,0-2.08-.07c-.67,0-1.28-.41-2-.23.22.62.48.73,1.1.63A6.62,6.62,0,0,1,86,108,9.91,9.91,0,0,0,89.63,107.8Zm47.23,55.36c-.7-.09-1,.59-1.55.68-.12,0-.18.29-.29.47C136.19,164.63,136.88,164.21,136.86,163.16Zm40.54-62.84c-.6.72-.09,1.49-.3,2.17a.15.15,0,0,0,.06.13c.1.06.22.15.31.13s.16-.17.18-.27c0-.42.07-.84.11-1.25A.93.93,0,0,0,177.4,100.32ZM81.92,111.89l.24,0c0-.81.07-1.61.11-2.42,0-.31-.07-.52-.43-.53A8.5,8.5,0,0,0,81.92,111.89ZM62.57,64.76a2.18,2.18,0,0,0-1.36.64c-.39.29-.22.72-.36,1.07C61.5,66,62.23,65.68,62.57,64.76ZM79.92,108l0-.23c-.88-.47-1.85-.08-2.77-.2-.13,0-.27.1-.41.16l0,.14ZM144.7,140.9a7.29,7.29,0,0,0-.19,1.3c0,.42-.52.71-.25,1.17.34,0,.41-.15.46-.4.08-.43.19-.87.3-1.3C145.09,141.4,145.18,141.13,144.7,140.9Zm-15.63-4.79a10.45,10.45,0,0,0,3.67.46A22.73,22.73,0,0,0,129.07,136.11ZM80.55,104.59c.37-1,.34-1.46-.17-1.92A6.71,6.71,0,0,0,80.55,104.59Zm63.73,3.66c.44.42.74.44,1.39.14ZM127.8,136a.51.51,0,0,0,.77.09C128.34,135.89,128.14,135.78,127.8,136Zm49.44-31.44h.16l0-.49h-.12ZM44.43,108.84l-.23,0-.06.46.14,0Zm37.93-1.09c-.14-.08-.22-.16-.26-.14a1.11,1.11,0,0,0-.27.17s.1.15.13.14A2,2,0,0,0,82.36,107.75Zm-1.92,29.67c0,.12-.13.21-.11.27a.24.24,0,0,0,.21.12c.06,0,.16-.13.15-.18S80.56,137.51,80.44,137.42ZM172,79.68l.19-.07a3.35,3.35,0,0,0-.2-.37s-.12.05-.11.06S171.92,79.56,172,79.68ZM88.21,136.09a1.19,1.19,0,0,0,.32.11s.1-.08.15-.13-.12-.15-.19-.15S88.36,136,88.21,136.09Zm68.31,12.58-.11-.14-.24.23.08.08Zm-7.78-40.23s-.06-.08-.1-.08-.07,0-.11,0l.12.12Z"/><path class="cls-1" d="M70.39,56.2c.51-.24.83-.65,1.52-.54-.28.26-.42.49-.63.58-.67.29-.79,1.23-1.67,1.38v-1a1.31,1.31,0,0,0-1.1.32l-2.2,1.54A9.17,9.17,0,0,0,64.5,60c-.48.57-1.08,1-1.61,1.56-1,.95-1.89,1.92-2.84,2.87,0,.06-.17.05-.38.1a3.09,3.09,0,0,1,.84-1.69c.48-.48,1-.91,1.5-1.36a1.62,1.62,0,0,0,.25-.28,2.64,2.64,0,0,1,1.55-1.43c.25-.09.44-.4.61-.65a4.74,4.74,0,0,1,1.84-1.48,1.61,1.61,0,0,0,.4-.3,3,3,0,0,1,1.76-1.17,12.08,12.08,0,0,0,1.41-.44C70.13,55.69,70.39,55.77,70.39,56.2Z"/><path class="cls-1" d="M68,58.52c-.06-.57.51-.72.93-1.09.09.14.21.25.19.32a1.2,1.2,0,0,1-.27.58C68.25,58.9,67.6,59.42,67,60c-.48.42-1,.85-1.43,1.29a1.94,1.94,0,0,0-.25.45,1.17,1.17,0,0,1-1.42.54c.24-.33.38-.74.67-.89.75-.39,1.18-1.13,1.85-1.6S67.44,59,68,58.52Z"/><path class="cls-1" d="M78,51.51c0,.12.07.18.06.22a3.46,3.46,0,0,1-1.51,1,.72.72,0,0,0-.42.17,8.05,8.05,0,0,1-1.75,1.39c-.64.39-1.35.67-2.18,1.08.09-.25.1-.37.15-.4.53-.34.91-.86,1.6-1a3.08,3.08,0,0,0,1.37-.88,2.91,2.91,0,0,1,1.39-.94c.12,0,.23-.16.33-.27A1.16,1.16,0,0,1,78,51.51Z"/><path class="cls-1" d="M70.81,58.92c0,.1,0,.25-.1.3-1,.77-2.08,1.52-3.13,2.27a.3.3,0,0,1-.5-.13.64.64,0,0,1,.1-.52,9.19,9.19,0,0,1,2.95-1.64,2.16,2.16,0,0,0,.54-.35Z"/><path class="cls-1" d="M71.76,58.3a.6.6,0,0,1,.15-.86c.69-.52,1.37-1,2.07-1.56a2.71,2.71,0,0,1,.83-.42c-.35.43-.44,1-1.11,1.25-.38.12-.66.58-1,.89S72.22,58.22,71.76,58.3Z"/><path class="cls-1" d="M146.69,48.81a2.23,2.23,0,0,1,.76.19A21.72,21.72,0,0,0,150,50c.48.26,1,.49,1.44.74.08,0,.11.15.17.22s-.13.11-.16.1l-4-1.55C147.1,49.42,146.76,49.34,146.69,48.81Z"/><path class="cls-1" d="M127.4,41.57a4.28,4.28,0,0,1-3-.45,1.15,1.15,0,0,1,1,0,8.8,8.8,0,0,1,1,.26C126.75,41.45,127.15,41.2,127.4,41.57Z"/><path class="cls-1" d="M58.27,68.33c0,.55-.58.61-.75,1.1a1.85,1.85,0,0,1-.22-.37C57.59,68.8,57.74,68.36,58.27,68.33Z"/><path class="cls-1" d="M63,62.93c.24.14.51.26.29.57a.47.47,0,0,1-.43.1C62.55,63.33,62.77,63.14,63,62.93Z"/><path class="cls-1" d="M91.21,44.14l-.5.46C90.67,44.16,90.79,44.07,91.21,44.14Z"/><path class="cls-1" d="M91.61,44.05l.43.07v.1H91.6Z"/><path class="cls-1" d="M104.07,136.79l-.45-.3a4.17,4.17,0,0,1,2.82.3,1.5,1.5,0,0,1-.4.2c-.86.07-1.71.11-2.67.17Z"/><path class="cls-1" d="M107.6,136.73a1.15,1.15,0,0,1,1.6-.54c.2.15.22.45,0,.48C108.7,136.73,108.16,137.06,107.6,136.73Z"/><path class="cls-1" d="M90.73,144.85l.37.81c-.42-.23-.42-.23-.52-.73Z"/><path class="cls-1" d="M102.71,137.2c-.1.06-.16.11-.21.11s-.08-.07-.12-.11.07-.08.11-.08A1.59,1.59,0,0,1,102.71,137.2Z"/><path class="cls-1" d="M101.43,136.49h-.11a.43.43,0,0,1,0-.11h.06Z"/><path class="cls-1" d="M109.37,83.73a.63.63,0,0,1-.93.1C108.77,83.49,109.07,83.66,109.37,83.73Z"/><path class="cls-1" d="M116,82.89a5.3,5.3,0,0,1,.52-.42c.19-.12.37-.07.49.17a1,1,0,0,1-1,.23Z"/><path class="cls-1" d="M112,83.53c0,.08-.06.15-.09.15l-.53,0c0-.09,0-.23,0-.26A.36.36,0,0,1,112,83.53Z"/><path class="cls-1" d="M115.93,82.87l-.51.26,0-.18.58-.06Z"/><path class="cls-1" d="M79.87,99.67l-.38,0,0-.16.39-.08Z"/><path class="cls-1" d="M151.19,118.73c-.39-.23-.73-.28-.52-.72,0-.11,0-.28,0-.41a2.32,2.32,0,0,1-.06-.44c0-.21,0-.51.31-.47.1,0,.22.28.25.45a7.75,7.75,0,0,1,.07,1C151.2,118.26,151.19,118.43,151.19,118.73Z"/><path class="cls-1" d="M150.53,111.86a3.41,3.41,0,0,1,.41,2.42c-.27-.3-.63-.49-.41-1,.06-.13-.06-.33-.09-.5A1.14,1.14,0,0,1,150.53,111.86Z"/><path class="cls-1" d="M150.8,120.89c-.12-.5-.34-.91-.15-1.36.29-.13.46,0,.55.23A1.05,1.05,0,0,1,150.8,120.89Z"/><path class="cls-1" d="M150.54,115.83l.2-1.13c.49.14.42.46.39.74S151,116,150.54,115.83Z"/></svg>